<svg xmlns="http://www.w3.org/2000/svg" xmlns:xlink="http://www.w3.org/1999/xlink" width="512" zoomAndPan="magnify" viewBox="0 0 384 362.999992" height="484" preserveAspectRatio="xMidYMid meet" version="1.0"><rect x="-38.4" width="460.8" fill="#ffffff" y="-36.299999" height="435.59999" fill-opacity="1"/><rect x="-38.4" width="460.8" fill="#ffffff" y="-36.299999" height="435.59999" fill-opacity="1"/><rect x="-38.4" width="460.8" fill="#292b2c" y="-36.299999" height="435.59999" fill-opacity="1"/><path fill="#5c8dbc" d="M 255.898438 151.992188 C 255.898438 149.570312 255.378906 147.429688 254.332031 145.59375 C 253.308594 143.785156 251.769531 142.273438 249.710938 141.074219 C 232.683594 131.234375 215.648438 121.425781 198.628906 111.574219 C 194.039062 108.921875 189.589844 109.015625 185.039062 111.710938 C 178.265625 115.714844 144.335938 135.199219 134.226562 141.070312 C 130.066406 143.484375 128.039062 147.183594 128.039062 151.988281 C 128.03125 171.78125 128.039062 191.566406 128.03125 211.355469 C 128.035156 213.726562 128.527344 215.820312 129.527344 217.632812 C 130.554688 219.492188 132.113281 221.050781 134.222656 222.277344 C 144.332031 228.144531 178.257812 247.625 185.035156 251.632812 C 189.59375 254.332031 194.042969 254.425781 198.628906 251.765625 C 215.648438 241.917969 232.691406 232.105469 249.714844 222.269531 C 251.828125 221.046875 253.382812 219.488281 254.414062 217.625 C 255.410156 215.820312 255.90625 213.71875 255.90625 211.347656 C 255.90625 211.347656 255.90625 171.785156 255.902344 151.992188 " fill-opacity="1" fill-rule="nonzero"/><path fill="#1a4674" d="M 192.164062 181.480469 L 129.527344 217.632812 C 130.554688 219.492188 132.113281 221.050781 134.222656 222.277344 C 144.332031 228.144531 178.257812 247.625 185.035156 251.632812 C 189.59375 254.328125 194.042969 254.425781 198.628906 251.765625 C 215.648438 241.917969 232.691406 232.105469 249.714844 222.269531 C 251.828125 221.046875 253.382812 219.488281 254.414062 217.625 L 192.164062 181.480469 " fill-opacity="1" fill-rule="nonzero"/><path fill="#1a4674" d="M 173.613281 192.1875 C 177.257812 198.566406 184.109375 202.871094 191.96875 202.871094 C 199.878906 202.871094 206.765625 198.511719 210.394531 192.066406 L 192.164062 181.480469 L 173.613281 192.1875 " fill-opacity="1" fill-rule="nonzero"/><path fill="#1b598e" d="M 255.898438 151.992188 C 255.898438 149.570312 255.378906 147.429688 254.332031 145.59375 L 192.164062 181.480469 L 254.414062 217.625 C 255.410156 215.820312 255.902344 213.71875 255.902344 211.347656 C 255.902344 211.347656 255.902344 171.785156 255.898438 151.992188 " fill-opacity="1" fill-rule="nonzero"/><path fill="#ffffff" d="M 252.476562 184.0625 L 247.613281 184.0625 L 247.613281 188.9375 L 242.746094 188.9375 L 242.746094 184.0625 L 237.882812 184.0625 L 237.882812 179.1875 L 242.746094 179.1875 L 242.746094 174.3125 L 247.613281 174.3125 L 247.613281 179.1875 L 252.476562 179.1875 L 252.476562 184.0625 " fill-opacity="1" fill-rule="nonzero"/><path fill="#ffffff" d="M 234.726562 184.0625 L 229.863281 184.0625 L 229.863281 188.9375 L 225 188.9375 L 225 184.0625 L 220.136719 184.0625 L 220.136719 179.1875 L 225 179.1875 L 225 174.3125 L 229.863281 174.3125 L 229.863281 179.1875 L 234.726562 179.1875 L 234.726562 184.0625 " fill-opacity="1" fill-rule="nonzero"/><path fill="#ffffff" d="M 210.394531 192.066406 C 206.765625 198.511719 199.878906 202.871094 191.96875 202.871094 C 184.109375 202.871094 177.257812 198.566406 173.613281 192.1875 C 171.839844 189.089844 170.824219 185.5 170.824219 181.671875 C 170.824219 169.964844 180.289062 160.472656 191.96875 160.472656 C 199.777344 160.472656 206.59375 164.722656 210.253906 171.039062 L 228.738281 160.371094 C 221.390625 147.65625 207.679688 139.101562 191.96875 139.101562 C 168.515625 139.101562 149.503906 158.160156 149.503906 181.671875 C 149.503906 189.382812 151.550781 196.617188 155.128906 202.855469 C 162.457031 215.636719 176.210938 224.242188 191.96875 224.242188 C 207.757812 224.242188 221.53125 215.601562 228.847656 202.785156 L 210.394531 192.066406 " fill-opacity="1" fill-rule="nonzero"/></svg>