<svg xmlns="http://www.w3.org/2000/svg" xmlns:xlink="http://www.w3.org/1999/xlink" width="512" zoomAndPan="magnify" viewBox="0 0 384 362.999992" height="484" preserveAspectRatio="xMidYMid meet" version="1.0"><defs><clipPath id="c851ff3bcc"><path d="M 153 108.898438 L 228 108.898438 L 228 254.398438 L 153 254.398438 Z M 153 108.898438 " clip-rule="nonzero"/></clipPath></defs><rect x="-38.4" width="460.8" fill="#ffffff" y="-36.299999" height="435.59999" fill-opacity="1"/><rect x="-38.4" width="460.8" fill="#ffffff" y="-36.299999" height="435.59999" fill-opacity="1"/><rect x="-38.4" width="460.8" fill="#292b2c" y="-36.299999" height="435.59999" fill-opacity="1"/><path fill="#4e7896" d="M 179.164062 186.0625 C 179.164062 186.0625 175.34375 188.394531 181.824219 189.0625 C 189.632812 190.0625 193.785156 189.894531 202.421875 188.226562 C 202.421875 188.226562 204.75 189.726562 207.90625 190.894531 C 188.46875 199.226562 163.878906 190.394531 179.164062 186.0625 Z M 176.671875 175.230469 C 176.671875 175.230469 172.519531 178.394531 179 179.0625 C 187.472656 179.894531 194.117188 180.0625 205.578125 177.730469 C 205.578125 177.730469 207.074219 179.394531 209.566406 180.230469 C 186.140625 187.226562 159.890625 180.894531 176.671875 175.230469 Z M 222.527344 194.226562 C 222.527344 194.226562 225.351562 196.558594 219.371094 198.390625 C 208.238281 201.726562 172.6875 202.726562 162.71875 198.390625 C 159.230469 196.890625 165.875 194.726562 168.035156 194.390625 C 170.195312 193.890625 171.355469 193.890625 171.355469 193.890625 C 167.535156 191.226562 145.9375 199.390625 160.390625 201.726562 C 200.097656 208.222656 232.824219 198.890625 222.527344 194.226562 Z M 180.992188 163.894531 C 180.992188 163.894531 162.886719 168.226562 174.515625 169.726562 C 179.5 170.394531 189.300781 170.226562 198.4375 169.5625 C 205.914062 168.894531 213.390625 167.5625 213.390625 167.5625 C 213.390625 167.5625 210.730469 168.726562 208.902344 169.894531 C 190.464844 174.726562 155.078125 172.558594 165.210938 167.5625 C 173.847656 163.394531 180.992188 163.894531 180.992188 163.894531 Z M 213.390625 182.058594 C 231.996094 172.394531 223.355469 163.0625 217.375 164.226562 C 215.882812 164.5625 215.214844 164.894531 215.214844 164.894531 C 215.214844 164.894531 215.714844 163.894531 216.878906 163.5625 C 228.671875 159.394531 237.976562 176.058594 213.058594 182.558594 C 213.058594 182.558594 213.222656 182.390625 213.390625 182.058594 Z M 182.820312 208.390625 C 200.761719 209.558594 228.171875 207.722656 228.839844 199.226562 C 228.839844 199.226562 227.511719 202.558594 214.054688 205.058594 C 198.769531 207.890625 179.832031 207.558594 168.703125 205.722656 C 168.703125 205.722656 171.03125 207.722656 182.824219 208.390625 Z M 182.820312 208.390625 " fill-opacity="1" fill-rule="nonzero"/><g clip-path="url(#c851ff3bcc)"><path fill="#f58219" d="M 202.089844 108.898438 C 202.089844 108.898438 212.390625 119.398438 192.289062 135.230469 C 176.175781 148.0625 188.632812 155.394531 192.289062 163.726562 C 182.820312 155.230469 176.007812 147.730469 180.660156 140.730469 C 187.472656 130.398438 206.246094 125.402344 202.09375 108.898438 Z M 196.777344 156.730469 C 201.59375 162.230469 195.449219 167.230469 195.449219 167.230469 C 195.449219 167.230469 207.742188 160.898438 202.09375 153.0625 C 196.945312 145.566406 192.957031 141.898438 214.554688 129.402344 C 214.554688 129.402344 180.496094 137.902344 196.777344 156.734375 Z M 184.480469 246.21875 L 184.480469 229.886719 C 184.480469 225.722656 182.15625 222.886719 176.339844 222.886719 C 173.019531 222.886719 170.195312 223.722656 167.703125 224.71875 L 168.53125 227.71875 C 170.355469 227.050781 172.6875 226.386719 175.179688 226.386719 C 178.335938 226.386719 179.828125 227.71875 179.828125 230.382812 L 179.828125 232.550781 L 178.167969 232.550781 C 170.195312 232.550781 166.539062 235.550781 166.539062 240.382812 C 166.539062 244.382812 169.03125 246.714844 173.515625 246.714844 C 176.339844 246.714844 178.5 245.382812 180.496094 243.714844 L 180.828125 246.214844 L 184.480469 246.214844 Z M 179.828125 240.886719 C 178.167969 242.386719 176.339844 243.21875 174.679688 243.21875 C 172.519531 243.21875 171.191406 241.886719 171.191406 239.554688 C 171.191406 237.21875 172.519531 235.554688 177.835938 235.554688 L 179.828125 235.554688 Z M 200.097656 246.21875 L 194.285156 246.21875 L 187.304688 223.386719 L 192.289062 223.386719 L 196.609375 237.386719 L 197.605469 241.554688 C 199.765625 235.554688 201.429688 229.386719 202.09375 223.386719 L 207.078125 223.386719 C 205.746094 230.886719 203.421875 239.054688 200.097656 246.21875 Z M 227.011719 246.21875 L 227.011719 229.886719 C 227.011719 225.722656 224.6875 222.886719 218.871094 222.886719 C 215.546875 222.886719 212.722656 223.722656 210.230469 224.71875 L 210.898438 227.71875 C 212.890625 227.050781 215.214844 226.386719 217.707031 226.386719 C 220.863281 226.386719 222.359375 227.71875 222.359375 230.382812 L 222.359375 232.550781 L 220.699219 232.550781 C 212.722656 232.550781 209.070312 235.550781 209.070312 240.382812 C 209.070312 244.382812 211.394531 246.714844 215.882812 246.714844 C 218.871094 246.714844 221.03125 245.382812 223.023438 243.714844 L 223.355469 246.214844 L 227.011719 246.214844 Z M 222.359375 240.886719 C 220.699219 242.386719 218.871094 243.21875 217.210938 243.21875 C 215.050781 243.21875 213.722656 241.886719 213.722656 239.554688 C 213.722656 237.21875 215.050781 235.554688 220.367188 235.554688 L 222.359375 235.554688 Z M 161.390625 250.054688 C 160.0625 252.054688 158.066406 253.550781 155.574219 254.386719 L 153.414062 251.722656 C 155.074219 250.722656 156.738281 249.222656 157.402344 247.886719 C 158.066406 246.722656 158.230469 245.054688 158.230469 241.222656 L 158.230469 215.222656 L 163.214844 215.222656 L 163.214844 240.890625 C 163.214844 246.054688 162.71875 248.054688 161.390625 250.054688 Z M 161.390625 250.054688 " fill-opacity="1" fill-rule="nonzero"/></g></svg>