<svg xmlns="http://www.w3.org/2000/svg" xmlns:xlink="http://www.w3.org/1999/xlink" width="512" zoomAndPan="magnify" viewBox="0 0 384 362.999992" height="484" preserveAspectRatio="xMidYMid meet" version="1.0"><defs><clipPath id="e9a6d4682c"><path d="M 120 112.378906 L 263 112.378906 L 263 194 L 120 194 Z M 120 112.378906 " clip-rule="nonzero"/></clipPath><clipPath id="f7dde1a426"><path d="M 115.199219 204 L 268.949219 204 L 268.949219 250.378906 L 115.199219 250.378906 Z M 115.199219 204 " clip-rule="nonzero"/></clipPath></defs><rect x="-38.4" width="460.8" fill="#ffffff" y="-36.299999" height="435.59999" fill-opacity="1"/><rect x="-38.4" width="460.8" fill="#ffffff" y="-36.299999" height="435.59999" fill-opacity="1"/><rect x="-38.4" width="460.8" fill="#292b2c" y="-36.299999" height="435.59999" fill-opacity="1"/><g clip-path="url(#e9a6d4682c)"><path fill="#555588" d="M 130.511719 163.242188 C 130.511719 160.707031 129.648438 158.902344 127.914062 157.832031 C 126.179688 156.761719 123.71875 156.226562 120.445312 156.226562 L 120.445312 146.855469 C 122.070312 146.855469 123.511719 146.742188 124.769531 146.503906 C 126.054688 146.242188 127.128906 145.832031 127.996094 145.285156 C 128.855469 144.714844 129.5 143.980469 129.921875 143.089844 C 130.367188 142.203125 130.5625 141.132812 130.511719 139.875 L 130.511719 127.410156 C 130.511719 125.476562 130.761719 123.828125 131.277344 122.46875 C 131.789062 121.046875 132.679688 119.921875 133.953125 119.097656 C 135.265625 118.207031 137.03125 117.554688 139.261719 117.136719 C 141.496094 116.71875 144.324219 116.511719 147.757812 116.511719 L 147.757812 125.332031 C 146.707031 125.359375 145.75 125.449219 144.886719 125.605469 C 144.046875 125.765625 143.328125 126.050781 142.722656 126.46875 C 142.148438 126.859375 141.703125 127.40625 141.386719 128.113281 C 141.074219 128.816406 140.914062 129.734375 140.914062 130.855469 L 140.914062 142.582031 C 140.757812 147.46875 137.691406 150.371094 131.714844 151.285156 L 131.714844 151.757812 C 134.726562 152.199219 137.035156 153.144531 138.617188 154.582031 C 140.195312 156.019531 140.972656 157.964844 140.914062 160.421875 L 140.914062 172.148438 C 140.914062 173.269531 141.074219 174.183594 141.386719 174.894531 C 141.703125 175.601562 142.148438 176.148438 142.722656 176.535156 C 143.324219 176.957031 144.066406 177.246094 144.886719 177.398438 C 145.835938 177.5625 146.792969 177.65625 147.757812 177.671875 L 147.757812 186.535156 C 144.304688 186.535156 141.492188 186.34375 139.261719 185.90625 C 137.035156 185.472656 135.265625 184.835938 133.953125 183.949219 C 132.679688 183.125 131.789062 182 131.277344 180.574219 C 130.78125 179.1875 130.511719 177.53125 130.511719 175.59375 L 130.511719 163.242188 M 152.882812 168.222656 C 152.882812 166.992188 153.074219 165.960938 153.394531 165.125 C 153.78125 164.265625 154.257812 163.570312 154.890625 163.046875 C 155.523438 162.523438 156.234375 162.144531 157.09375 161.910156 C 157.980469 161.667969 158.882812 161.546875 159.804688 161.554688 C 160.6875 161.550781 161.550781 161.667969 162.402344 161.910156 C 163.238281 162.144531 163.972656 162.519531 164.601562 163.046875 C 165.230469 163.570312 165.730469 164.261719 166.097656 165.125 C 166.480469 165.960938 166.648438 166.996094 166.648438 168.222656 C 166.648438 169.398438 166.460938 170.40625 166.097656 171.242188 C 165.730469 172.082031 165.234375 172.773438 164.601562 173.320312 C 163.957031 173.878906 163.222656 174.273438 162.402344 174.496094 C 161.585938 174.757812 160.722656 174.890625 159.804688 174.890625 C 158.835938 174.890625 157.929688 174.757812 157.09375 174.496094 C 156.269531 174.273438 155.535156 173.878906 154.890625 173.320312 C 154.238281 172.738281 153.738281 172.046875 153.394531 171.242188 C 153.054688 170.40625 152.882812 169.398438 152.882812 168.222656 M 175.0625 193.136719 C 173.757812 193.136719 172.460938 193.042969 171.171875 192.863281 C 169.835938 192.679688 168.722656 192.441406 167.828125 192.15625 L 167.828125 182.746094 C 168.574219 182.992188 169.335938 183.171875 170.109375 183.292969 C 170.820312 183.425781 171.617188 183.488281 172.503906 183.488281 C 173.140625 183.492188 173.757812 183.386719 174.351562 183.175781 C 174.976562 182.984375 175.488281 182.628906 175.886719 182.117188 C 176.332031 181.617188 176.6875 180.941406 176.949219 180.078125 C 177.210938 179.242188 177.34375 178.15625 177.34375 176.824219 L 177.34375 129.992188 L 189.332031 129.992188 L 189.332031 178.554688 C 189.332031 180.566406 189.070312 182.449219 188.566406 184.199219 C 188.066406 185.976562 187.226562 187.519531 186.089844 188.828125 C 184.960938 190.160156 183.492188 191.207031 181.6875 191.960938 C 179.878906 192.71875 177.675781 193.101562 175.082031 193.101562 M 176.851562 118.640625 C 176.851562 117.515625 177.042969 116.589844 177.363281 115.859375 C 177.675781 115.144531 178.132812 114.542969 178.738281 114.054688 C 179.359375 113.574219 180.054688 113.246094 180.824219 113.074219 C 181.664062 112.886719 182.515625 112.796875 183.378906 112.800781 C 184.230469 112.792969 185.066406 112.886719 185.894531 113.074219 C 186.664062 113.257812 187.363281 113.585938 187.941406 114.054688 C 188.542969 114.5 189.011719 115.101562 189.355469 115.859375 C 189.738281 116.589844 189.90625 117.515625 189.90625 118.640625 C 189.90625 119.738281 189.722656 120.667969 189.355469 121.425781 C 189.011719 122.183594 188.542969 122.796875 187.941406 123.269531 C 187.363281 123.710938 186.683594 124.039062 185.894531 124.25 C 185.128906 124.433594 184.269531 124.523438 183.382812 124.523438 C 182.519531 124.527344 181.667969 124.4375 180.824219 124.25 C 180.066406 124.054688 179.375 123.726562 178.742188 123.269531 C 178.167969 122.796875 177.707031 122.183594 177.363281 121.425781 C 177.023438 120.667969 176.851562 119.738281 176.851562 118.640625 M 230.992188 160.8125 C 230.992188 163.113281 230.570312 165.125 229.734375 166.847656 C 228.898438 168.582031 227.707031 170.019531 226.15625 171.164062 C 224.609375 172.308594 222.738281 173.175781 220.535156 173.75 C 218.332031 174.324219 215.867188 174.609375 213.144531 174.609375 C 211.703125 174.609375 210.363281 174.558594 209.132812 174.453125 C 207.957031 174.382812 206.792969 174.238281 205.632812 174.019531 L 202.453125 173.257812 C 201.390625 172.929688 200.355469 172.535156 199.347656 172.082031 L 199.347656 162.164062 C 200.445312 162.714844 201.601562 163.210938 202.808594 163.65625 L 206.460938 164.832031 L 209.960938 165.597656 C 211.117188 165.78125 212.175781 165.871094 213.144531 165.871094 C 214.21875 165.871094 215.136719 165.78125 215.898438 165.597656 C 216.566406 165.441406 217.183594 165.167969 217.746094 164.773438 C 218.210938 164.453125 218.566406 164.03125 218.808594 163.519531 C 219.042969 163.023438 219.160156 162.5 219.160156 161.953125 C 219.160156 161.402344 219.070312 160.921875 218.886719 160.5 C 218.726562 160.054688 218.347656 159.597656 217.746094 159.128906 C 217.144531 158.628906 216.25 158.082031 215.070312 157.484375 L 210.394531 155.1875 L 205.402344 152.640625 C 204.011719 151.78125 202.859375 150.824219 201.941406 149.777344 C 201.050781 148.730469 200.382812 147.539062 199.933594 146.210938 C 199.488281 144.878906 199.265625 143.242188 199.265625 141.386719 C 199.265625 139.351562 199.65625 137.570312 200.441406 136.035156 C 201.210938 134.492188 202.359375 133.210938 203.785156 132.210938 C 205.207031 131.210938 206.957031 130.433594 208.972656 129.917969 C 211.019531 129.394531 213.289062 129.152344 215.777344 129.152344 C 218.398438 129.152344 220.886719 129.453125 223.246094 130.054688 C 225.601562 130.65625 228.027344 131.558594 230.519531 132.757812 L 226.882812 141.324219 C 225.027344 140.441406 223.128906 139.667969 221.179688 139.011719 C 219.371094 138.410156 217.5625 138.109375 215.753906 138.109375 C 214.128906 138.109375 212.949219 138.394531 212.214844 138.96875 C 211.507812 139.542969 211.152344 140.308594 211.152344 141.320312 C 211.152344 141.84375 211.246094 142.316406 211.429688 142.730469 C 211.613281 143.125 211.980469 143.542969 212.53125 143.988281 C 213.082031 144.40625 213.871094 144.875 214.832031 145.398438 L 218.722656 147.242188 L 223.753906 149.667969 C 225.25 150.433594 226.535156 151.355469 227.589844 152.375 C 228.644531 153.394531 229.507812 154.582031 230.066406 155.941406 C 230.625 157.300781 230.929688 158.945312 230.929688 160.882812 M 252.328125 175.59375 C 252.328125 177.527344 252.078125 179.1875 251.5625 180.574219 C 251.042969 181.960938 250.164062 183.082031 248.847656 183.945312 C 247.566406 184.835938 245.808594 185.488281 243.582031 185.90625 C 241.355469 186.324219 238.519531 186.53125 235.089844 186.53125 L 235.089844 177.652344 C 236.039062 177.632812 236.984375 177.542969 237.921875 177.375 C 238.757812 177.21875 239.46875 176.933594 240.042969 176.515625 C 240.667969 176.105469 241.125 175.558594 241.417969 174.871094 C 241.761719 174.164062 241.929688 173.25 241.929688 172.125 L 241.929688 160.398438 C 241.855469 157.945312 242.609375 155.996094 244.230469 154.558594 C 245.851562 153.121094 248.121094 152.179688 251.132812 151.734375 L 251.132812 151.261719 C 245.183594 150.34375 242.128906 147.445312 241.972656 142.558594 L 241.972656 130.835938 C 241.972656 129.710938 241.78125 128.796875 241.460938 128.089844 C 241.167969 127.402344 240.710938 126.851562 240.085938 126.441406 C 239.507812 126.023438 238.800781 125.734375 237.960938 125.582031 C 237.027344 125.417969 236.082031 125.324219 235.128906 125.308594 L 235.128906 116.484375 C 238.582031 116.484375 241.394531 116.675781 243.625 117.113281 C 245.851562 117.546875 247.605469 118.183594 248.890625 119.070312 C 250.203125 119.933594 251.105469 121.058594 251.605469 122.445312 C 252.101562 123.78125 252.371094 125.449219 252.371094 127.386719 L 252.371094 139.851562 C 252.34375 141.105469 252.5625 142.175781 252.960938 143.066406 C 253.359375 143.957031 254.023438 144.6875 254.886719 145.261719 C 255.75 145.808594 256.816406 146.21875 258.070312 146.476562 C 259.355469 146.710938 260.8125 146.832031 262.433594 146.832031 L 262.433594 156.199219 C 259.175781 156.199219 256.652344 156.734375 254.925781 157.804688 C 253.199219 158.875 252.371094 160.679688 252.371094 163.214844 L 252.371094 175.566406 " fill-opacity="1" fill-rule="nonzero"/></g><path fill="#000000" d="M 118.738281 247.285156 C 118.160156 247.285156 117.664062 247.246094 117.238281 247.164062 C 116.808594 247.097656 116.441406 247.003906 116.125 246.878906 L 116.125 244.1875 C 116.53125 244.292969 116.941406 244.371094 117.355469 244.421875 C 117.824219 244.492188 118.296875 244.527344 118.773438 244.523438 C 119.195312 244.523438 119.609375 244.464844 120.019531 244.355469 C 120.445312 244.253906 120.828125 244.066406 121.164062 243.785156 C 121.511719 243.503906 121.792969 243.113281 122.007812 242.625 C 122.222656 242.136719 122.328125 241.503906 122.328125 240.742188 L 122.328125 216.175781 L 125.480469 216.175781 L 125.480469 240.410156 C 125.480469 241.585938 125.3125 242.605469 124.972656 243.46875 C 124.679688 244.285156 124.21875 244.996094 123.589844 245.601562 C 122.984375 246.191406 122.277344 246.609375 121.46875 246.863281 C 120.648438 247.144531 119.527344 247.28125 118.53125 247.28125 M 141.136719 238.191406 L 141.003906 238.191406 C 140.667969 238.65625 140.296875 239.09375 139.890625 239.503906 C 139.527344 239.855469 139.125 240.152344 138.679688 240.394531 C 138.214844 240.636719 137.726562 240.8125 137.210938 240.914062 C 136.671875 241.03125 136.050781 241.085938 135.339844 241.085938 C 134.566406 241.085938 133.851562 240.96875 133.203125 240.746094 C 132.554688 240.550781 131.988281 240.21875 131.5 239.753906 C 131.027344 239.292969 130.65625 238.722656 130.386719 238.039062 C 130.117188 237.347656 130.003906 236.511719 130.003906 235.585938 C 130.003906 233.75 130.648438 232.335938 131.921875 231.351562 C 133.222656 230.367188 135.179688 229.828125 137.851562 229.738281 L 140.953125 229.621094 L 140.953125 228.460938 C 140.953125 227.710938 140.867188 227.085938 140.699219 226.578125 C 140.542969 226.074219 140.304688 225.671875 139.988281 225.371094 C 139.667969 225.042969 139.285156 224.816406 138.84375 224.695312 C 138.335938 224.554688 137.820312 224.488281 137.292969 224.496094 C 136.398438 224.488281 135.53125 224.621094 134.679688 224.898438 C 133.886719 225.164062 133.117188 225.488281 132.375 225.871094 L 131.296875 223.570312 C 132.128906 223.125 133.054688 222.742188 134.074219 222.425781 C 135.125 222.109375 136.199219 221.953125 137.292969 221.957031 C 138.441406 221.957031 139.429688 222.074219 140.261719 222.3125 C 141.105469 222.535156 141.792969 222.898438 142.332031 223.402344 C 142.90625 223.925781 143.316406 224.558594 143.5625 225.300781 C 143.832031 226.070312 143.945312 227.007812 143.945312 228.105469 L 143.945312 240.746094 L 141.75 240.746094 Z M 136.152344 238.601562 C 136.808594 238.609375 137.441406 238.5 138.058594 238.28125 C 138.632812 238.078125 139.140625 237.757812 139.570312 237.328125 C 140 236.890625 140.332031 236.347656 140.570312 235.699219 C 140.816406 235.035156 140.9375 234.265625 140.9375 233.378906 L 140.9375 231.714844 L 138.527344 231.835938 C 137.519531 231.878906 136.667969 231.992188 135.984375 232.171875 C 135.300781 232.351562 134.75 232.601562 134.335938 232.925781 C 133.953125 233.242188 133.640625 233.628906 133.460938 234.085938 C 133.269531 234.578125 133.179688 235.089844 133.191406 235.617188 C 133.191406 236.648438 133.457031 237.402344 134 237.886719 C 134.550781 238.367188 135.269531 238.609375 136.15625 238.609375 M 146.546875 222.296875 L 149.714844 222.296875 L 153.066406 232.5625 L 153.507812 233.992188 L 154.015625 235.773438 L 154.46875 237.484375 L 154.757812 238.714844 L 154.875 238.714844 L 155.164062 237.484375 L 155.617188 235.773438 L 156.125 233.992188 L 156.566406 232.5625 L 159.917969 222.296875 L 163.085938 222.296875 L 156.753906 240.746094 L 152.859375 240.746094 Z M 175.601562 238.191406 L 175.46875 238.191406 C 175.132812 238.65625 174.761719 239.09375 174.355469 239.503906 C 173.601562 240.230469 172.707031 240.703125 171.675781 240.914062 C 171.136719 241.03125 170.515625 241.085938 169.804688 241.085938 C 169.03125 241.085938 168.320312 240.96875 167.667969 240.746094 C 167.019531 240.550781 166.453125 240.21875 165.964844 239.753906 C 165.492188 239.292969 165.121094 238.722656 164.851562 238.039062 C 164.585938 237.347656 164.46875 236.511719 164.46875 235.585938 C 164.46875 233.75 165.113281 232.335938 166.386719 231.351562 C 167.691406 230.367188 169.644531 229.828125 172.316406 229.738281 L 175.417969 229.621094 L 175.417969 228.460938 C 175.417969 227.710938 175.332031 227.085938 175.164062 226.578125 C 175.007812 226.074219 174.769531 225.671875 174.457031 225.371094 C 174.132812 225.042969 173.75 224.816406 173.308594 224.695312 C 172.800781 224.554688 172.285156 224.488281 171.757812 224.496094 C 170.867188 224.488281 169.996094 224.621094 169.148438 224.898438 C 168.351562 225.164062 167.582031 225.488281 166.839844 225.871094 L 165.761719 223.570312 C 166.59375 223.125 167.519531 222.742188 168.539062 222.425781 C 169.589844 222.109375 170.664062 221.953125 171.761719 221.957031 C 172.90625 221.957031 173.894531 222.074219 174.726562 222.3125 C 175.570312 222.535156 176.261719 222.898438 176.796875 223.402344 C 177.371094 223.925781 177.78125 224.558594 178.027344 225.300781 C 178.300781 226.070312 178.410156 227.007812 178.410156 228.105469 L 178.410156 240.746094 L 176.207031 240.746094 Z M 170.617188 238.613281 C 171.273438 238.617188 171.90625 238.511719 172.523438 238.292969 C 173.101562 238.085938 173.605469 237.769531 174.039062 237.335938 C 174.464844 236.898438 174.796875 236.355469 175.035156 235.707031 C 175.285156 235.046875 175.402344 234.273438 175.402344 233.386719 L 175.402344 231.726562 L 172.996094 231.84375 C 171.984375 231.886719 171.132812 232 170.449219 232.179688 C 169.765625 232.359375 169.214844 232.613281 168.800781 232.9375 C 168.417969 233.25 168.105469 233.636719 167.925781 234.097656 C 167.738281 234.589844 167.648438 235.097656 167.65625 235.625 C 167.65625 236.65625 167.921875 237.414062 168.464844 237.894531 C 169.015625 238.375 169.734375 238.617188 170.621094 238.617188 M 197.332031 234.175781 C 197.332031 235.261719 197.132812 236.238281 196.742188 237.101562 C 196.363281 237.953125 195.8125 238.675781 195.089844 239.269531 C 194.371094 239.84375 193.496094 240.316406 192.464844 240.632812 C 191.429688 240.933594 190.265625 241.085938 188.976562 241.085938 C 187.796875 241.089844 186.628906 240.988281 185.46875 240.78125 C 184.390625 240.589844 183.488281 240.304688 182.757812 239.925781 L 182.757812 236.933594 L 184.054688 237.46875 L 185.589844 237.921875 L 187.257812 238.261719 C 187.820312 238.335938 188.390625 238.375 188.960938 238.378906 C 190.757812 238.378906 192.085938 238.042969 192.9375 237.371094 C 193.796875 236.699219 194.234375 235.738281 194.234375 234.480469 C 194.246094 233.9375 194.160156 233.414062 193.980469 232.902344 C 193.824219 232.453125 193.539062 232.042969 193.121094 231.671875 C 192.738281 231.292969 192.171875 230.910156 191.488281 230.582031 C 190.644531 230.144531 189.78125 229.757812 188.890625 229.425781 C 187.980469 229.078125 187.113281 228.652344 186.28125 228.148438 C 185.550781 227.675781 184.945312 227.148438 184.457031 226.570312 C 183.988281 225.984375 183.632812 225.324219 183.394531 224.585938 C 183.171875 223.847656 183.058594 223.007812 183.058594 222.066406 C 183.058594 221.078125 183.238281 220.203125 183.597656 219.425781 C 183.949219 218.660156 184.453125 218.007812 185.113281 217.476562 C 185.804688 216.914062 186.582031 216.507812 187.4375 216.25 C 188.347656 215.972656 189.347656 215.828125 190.4375 215.828125 C 191.773438 215.828125 192.972656 215.957031 194.039062 216.214844 C 195.109375 216.464844 196.058594 216.78125 196.886719 217.171875 L 195.738281 219.789062 C 195.007812 219.464844 194.175781 219.1875 193.246094 218.949219 C 192.304688 218.699219 191.351562 218.578125 190.378906 218.582031 C 189.007812 218.582031 187.945312 218.898438 187.199219 219.535156 C 186.820312 219.851562 186.527344 220.234375 186.328125 220.679688 C 186.125 221.128906 186.03125 221.597656 186.046875 222.089844 C 186.046875 222.730469 186.132812 223.285156 186.300781 223.753906 C 186.484375 224.238281 186.765625 224.660156 187.140625 225.015625 C 187.535156 225.382812 188.054688 225.738281 188.675781 226.074219 C 189.328125 226.398438 190.125 226.746094 191.070312 227.117188 C 191.988281 227.46875 192.882812 227.882812 193.746094 228.359375 C 194.464844 228.742188 195.113281 229.222656 195.683594 229.804688 C 196.207031 230.34375 196.59375 230.964844 196.847656 231.667969 C 197.113281 232.378906 197.257812 233.242188 197.257812 234.203125 M 208.671875 241.082031 C 207.535156 241.082031 206.472656 240.890625 205.488281 240.558594 C 204.496094 240.203125 203.636719 239.644531 202.910156 238.878906 C 202.183594 238.105469 201.605469 237.125 201.191406 235.9375 C 200.777344 234.738281 200.570312 233.296875 200.570312 231.617188 C 200.570312 229.855469 200.761719 228.367188 201.210938 227.144531 C 201.636719 225.914062 202.21875 224.917969 202.960938 224.15625 C 203.703125 223.386719 204.578125 222.828125 205.589844 222.472656 C 206.585938 222.125 207.660156 221.953125 208.808594 221.953125 C 209.671875 221.949219 210.527344 222.042969 211.371094 222.234375 C 212.101562 222.386719 212.804688 222.625 213.476562 222.941406 L 212.566406 225.53125 C 212.308594 225.414062 212.023438 225.3125 211.707031 225.210938 C 211.394531 225.097656 211.074219 225.003906 210.75 224.925781 C 210.410156 224.835938 210.078125 224.765625 209.753906 224.722656 C 209.445312 224.667969 209.136719 224.640625 208.828125 224.640625 C 207.0625 224.640625 205.757812 225.207031 204.96875 226.335938 C 204.160156 227.457031 203.753906 229.207031 203.753906 231.578125 C 203.753906 233.941406 204.136719 235.675781 204.96875 236.773438 C 205.789062 237.859375 207.027344 238.402344 208.691406 238.402344 C 209.523438 238.410156 210.34375 238.3125 211.148438 238.097656 C 211.84375 237.90625 212.515625 237.65625 213.171875 237.359375 L 213.171875 240.082031 C 212.554688 240.414062 211.902344 240.660156 211.21875 240.820312 C 210.53125 240.992188 209.644531 241.074219 208.644531 241.074219 M 225.457031 221.957031 L 226.550781 222.007812 C 226.902344 222.023438 227.25 222.0625 227.59375 222.128906 L 227.210938 224.949219 L 226.253906 224.816406 C 225.925781 224.769531 225.621094 224.75 225.328125 224.75 C 224.617188 224.75 223.972656 224.894531 223.410156 225.1875 C 222.808594 225.476562 222.304688 225.886719 221.894531 226.414062 C 221.449219 226.988281 221.128906 227.628906 220.933594 228.328125 C 220.699219 229.136719 220.585938 229.960938 220.597656 230.800781 L 220.597656 240.746094 L 217.53125 240.746094 L 217.53125 222.296875 L 220.023438 222.296875 L 220.390625 225.671875 L 220.527344 225.671875 L 221.417969 224.277344 C 221.730469 223.84375 222.09375 223.449219 222.5 223.101562 C 222.902344 222.753906 223.351562 222.480469 223.847656 222.277344 C 224.40625 222.058594 224.984375 221.949219 225.582031 221.957031 M 234.058594 240.746094 L 230.992188 240.746094 L 230.992188 222.296875 L 234.058594 222.296875 L 234.058594 240.746094 M 231.261719 215.84375 C 231.628906 215.527344 232.054688 215.375 232.539062 215.390625 C 232.777344 215.386719 233.007812 215.425781 233.230469 215.507812 C 233.449219 215.570312 233.640625 215.683594 233.804688 215.84375 C 233.980469 216.015625 234.109375 216.214844 234.191406 216.449219 C 234.292969 216.683594 234.34375 216.96875 234.34375 217.304688 C 234.34375 217.957031 234.164062 218.441406 233.808594 218.769531 C 233.460938 219.082031 233.042969 219.238281 232.542969 219.238281 C 232.042969 219.238281 231.597656 219.003906 231.25 218.6875 C 230.910156 218.375 230.75 217.882812 230.753906 217.265625 C 230.757812 216.632812 230.945312 216.144531 231.261719 215.84375 Z M 248.140625 241.082031 C 247.53125 241.085938 246.929688 241.015625 246.339844 240.863281 C 245.800781 240.71875 245.308594 240.527344 244.871094 240.289062 C 244.453125 240.050781 244.070312 239.765625 243.726562 239.433594 C 243.40625 239.113281 243.113281 238.773438 242.847656 238.40625 L 242.648438 238.40625 L 242.75 239.496094 L 242.816406 240.40625 L 242.851562 241.128906 L 242.851562 249.007812 L 239.785156 249.007812 L 239.785156 222.296875 L 242.277344 222.296875 L 242.714844 224.78125 L 242.851562 224.78125 C 243.109375 224.390625 243.402344 224.027344 243.726562 223.6875 C 244.058594 223.335938 244.433594 223.039062 244.855469 222.796875 C 245.316406 222.53125 245.804688 222.328125 246.324219 222.195312 C 246.917969 222.03125 247.523438 221.949219 248.140625 221.957031 C 249.195312 221.957031 250.160156 222.160156 251.023438 222.5625 C 251.886719 222.964844 252.625 223.570312 253.226562 224.378906 C 253.84375 225.175781 254.320312 226.167969 254.660156 227.355469 C 255 228.542969 255.167969 229.921875 255.167969 231.488281 C 255.167969 233.066406 254.996094 234.457031 254.660156 235.65625 C 254.324219 236.839844 253.84375 237.839844 253.226562 238.644531 C 252.621094 239.453125 251.886719 240.0625 251.023438 240.476562 C 250.160156 240.859375 248.984375 241.082031 247.929688 241.082031 M 247.550781 224.496094 C 246.699219 224.496094 245.972656 224.625 245.378906 224.882812 C 244.792969 225.140625 244.316406 225.53125 243.945312 226.058594 C 243.574219 226.582031 243.316406 227.238281 243.136719 228.023438 C 242.953125 228.9375 242.859375 229.863281 242.851562 230.796875 L 242.851562 231.484375 C 242.84375 232.5 242.914062 233.507812 243.070312 234.507812 C 243.226562 235.382812 243.484375 236.121094 243.84375 236.726562 C 244.207031 237.316406 244.695312 237.769531 245.308594 238.089844 C 245.917969 238.390625 246.675781 238.542969 247.585938 238.542969 C 249.121094 238.542969 250.210938 237.929688 250.921875 236.710938 C 251.632812 235.488281 252 233.734375 252 231.453125 C 252 229.117188 251.640625 227.378906 250.921875 226.226562 C 250.207031 225.074219 249.09375 224.496094 247.554688 224.496094 M 265.382812 238.578125 C 265.582031 238.578125 265.808594 238.558594 266.058594 238.542969 L 266.800781 238.457031 L 267.4375 238.339844 L 267.894531 238.222656 L 267.894531 240.542969 C 267.746094 240.609375 267.5625 240.675781 267.320312 240.742188 C 267.074219 240.8125 266.828125 240.867188 266.578125 240.910156 C 266.308594 240.96875 266.027344 241.003906 265.734375 241.027344 C 265.449219 241.0625 265.160156 241.078125 264.875 241.078125 C 264.179688 241.078125 263.53125 240.988281 262.957031 240.8125 C 262.363281 240.632812 261.84375 240.324219 261.40625 239.886719 C 260.976562 239.449219 260.640625 238.863281 260.394531 238.121094 C 260.144531 237.371094 260.023438 236.429688 260.023438 235.296875 L 260.023438 224.589844 L 257.414062 224.589844 L 257.414062 223.230469 L 260.023438 221.917969 L 261.339844 218.054688 L 263.109375 218.054688 L 263.109375 222.289062 L 267.800781 222.289062 L 267.800781 224.589844 L 263.148438 224.589844 L 263.148438 235.296875 C 263.148438 236.382812 263.339844 237.199219 263.671875 237.75 C 264 238.296875 264.613281 238.570312 265.421875 238.570312 " fill-opacity="1" fill-rule="nonzero"/><g clip-path="url(#f7dde1a426)"><path stroke-linecap="butt" transform="matrix(1.917082, 0, 0, 1.911935, 105.806299, 87.790746)" fill="none" stroke-linejoin="miter" d="M 6.745659 83.420395 C 6.444094 83.420395 6.185318 83.399964 5.96322 83.357059 C 5.739084 83.322327 5.547549 83.273293 5.382503 83.207914 L 5.382503 81.800227 C 5.594414 81.855391 5.808362 81.896252 6.024348 81.922812 C 6.26886 81.959588 6.51541 81.977976 6.763997 81.975933 C 6.984058 81.975933 7.200044 81.945286 7.413992 81.88808 C 7.636091 81.83496 7.835776 81.736892 8.01101 81.589789 C 8.192356 81.442687 8.339064 81.238378 8.451132 80.982993 C 8.5632 80.727607 8.618215 80.396627 8.618215 79.998225 L 8.618215 67.149252 L 10.26256 67.149252 L 10.26256 79.824562 C 10.26256 80.439531 10.174943 80.972777 9.997671 81.424299 C 9.844851 81.851304 9.604414 82.223146 9.27636 82.539825 C 8.960532 82.848331 8.591726 83.066941 8.169943 83.199742 C 7.742046 83.346844 7.157255 83.418352 6.637666 83.418352 M 18.429268 78.664089 L 18.359989 78.664089 C 18.184756 78.907216 17.991183 79.136042 17.779273 79.350566 C 17.589776 79.534444 17.379903 79.689719 17.147616 79.81639 C 16.905142 79.943061 16.650441 80.035 16.381478 80.088121 C 16.100289 80.149413 15.77631 80.178016 15.405467 80.178016 C 15.002022 80.178016 14.62914 80.116724 14.290899 80.000268 C 13.952657 79.898113 13.657204 79.724451 13.402504 79.481324 C 13.155954 79.24024 12.962382 78.941949 12.821788 78.584409 C 12.681193 78.222782 12.622103 77.785562 12.622103 77.30135 C 12.622103 76.341099 12.958307 75.601502 13.622565 75.086644 C 14.301087 74.571786 15.321925 74.28984 16.715645 74.242849 L 18.333501 74.181557 L 18.333501 73.57476 C 18.333501 73.182487 18.288673 72.855593 18.201056 72.589992 C 18.119552 72.326434 17.995259 72.115996 17.830213 71.958678 C 17.66313 71.787059 17.463445 71.66856 17.233196 71.605224 C 16.968307 71.531673 16.699344 71.496941 16.424268 71.501027 C 15.957657 71.496941 15.505309 71.566406 15.061112 71.711465 C 14.647479 71.850395 14.246071 72.019971 13.858927 72.220193 L 13.296549 71.016815 C 13.730558 70.783903 14.21347 70.583681 14.745284 70.418191 C 15.293399 70.252701 15.853739 70.170977 16.424268 70.17302 C 17.023323 70.17302 17.538836 70.234313 17.972845 70.358941 C 18.412967 70.475397 18.771585 70.665404 19.052774 70.928963 C 19.352302 71.202736 19.56625 71.533716 19.694619 71.921903 C 19.835213 72.324391 19.894304 72.814732 19.894304 73.388839 L 19.894304 80.000268 L 18.749171 80.000268 Z M 15.829288 78.878613 C 16.171605 78.882699 16.501697 78.825493 16.823638 78.71108 C 17.123165 78.60484 17.388053 78.437306 17.61219 78.212567 C 17.836326 77.983741 18.009522 77.699752 18.133816 77.3606 C 18.262185 77.013275 18.32535 76.610787 18.32535 76.147006 L 18.32535 75.276651 L 17.06815 75.339987 C 16.542449 75.362461 16.098251 75.42171 15.741671 75.515692 C 15.385091 75.609674 15.097789 75.740432 14.881803 75.910008 C 14.682118 76.075498 14.51911 76.277764 14.42538 76.516805 C 14.325538 76.774234 14.278673 77.041878 14.284786 77.317695 C 14.284786 77.85707 14.423343 78.251386 14.706569 78.504728 C 14.993871 78.756028 15.36879 78.882699 15.831326 78.882699 M 21.251346 70.350769 L 22.903841 70.350769 L 24.652104 75.720001 L 24.882353 76.467771 L 25.147241 77.399418 L 25.383603 78.29429 L 25.534385 78.937863 L 25.595514 78.937863 L 25.746296 78.29429 L 25.982658 77.399418 L 26.247546 76.467771 L 26.477795 75.720001 L 28.226057 70.350769 L 29.878553 70.350769 L 26.5756 80.000268 L 24.544111 80.000268 Z M 36.407029 78.664089 L 36.33775 78.664089 C 36.162517 78.907216 35.968944 79.136042 35.757034 79.350566 C 35.363777 79.73058 34.897166 79.977794 34.359239 80.088121 C 34.07805 80.149413 33.754071 80.178016 33.383228 80.178016 C 32.979783 80.178016 32.608939 80.116724 32.26866 80.000268 C 31.930418 79.898113 31.634965 79.724451 31.380265 79.481324 C 31.133715 79.24024 30.940143 78.941949 30.799549 78.584409 C 30.660992 78.222782 30.599864 77.785562 30.599864 77.30135 C 30.599864 76.341099 30.936068 75.601502 31.600326 75.086644 C 32.280885 74.571786 33.299686 74.28984 34.693406 74.242849 L 36.311262 74.181557 L 36.311262 73.57476 C 36.311262 73.182487 36.266434 72.855593 36.178817 72.589992 C 36.097313 72.326434 35.97302 72.115996 35.810012 71.958678 C 35.640891 71.787059 35.441206 71.66856 35.210957 71.605224 C 34.946068 71.531673 34.677105 71.496941 34.402029 71.501027 C 33.937455 71.496941 33.48307 71.566406 33.040911 71.711465 C 32.62524 71.850395 32.223832 72.019971 31.836688 72.220193 L 31.27431 71.016815 C 31.708319 70.783903 32.191231 70.583681 32.723045 70.418191 C 33.27116 70.252701 33.8315 70.170977 34.404066 70.17302 C 35.001084 70.17302 35.516597 70.234313 35.950606 70.358941 C 36.390728 70.475397 36.751384 70.665404 37.030535 70.928963 C 37.330062 71.202736 37.544011 71.533716 37.67238 71.921903 C 37.815012 72.324391 37.872065 72.814732 37.872065 73.388839 L 37.872065 80.000268 L 36.722857 80.000268 Z M 33.807049 78.884742 C 34.149366 78.886785 34.479458 78.831622 34.801399 78.717209 C 35.102964 78.608926 35.365814 78.443436 35.591988 78.216653 C 35.814087 77.987827 35.987283 77.703838 36.111577 77.364686 C 36.241983 77.019404 36.303111 76.614873 36.303111 76.151092 L 36.303111 75.28278 L 35.047948 75.344073 C 34.52021 75.366547 34.076012 75.425797 33.719432 75.519779 C 33.362852 75.61376 33.07555 75.746561 32.859564 75.916137 C 32.659879 76.079584 32.496871 76.28185 32.403141 76.522934 C 32.305336 76.780363 32.258472 77.045964 32.262547 77.321781 C 32.262547 77.861156 32.401104 78.257515 32.68433 78.508814 C 32.971632 78.760114 33.346551 78.886785 33.809087 78.886785 M 47.742208 76.563796 C 47.742208 77.131774 47.63829 77.642546 47.43453 78.094068 C 47.236883 78.539461 46.949581 78.917432 46.572624 79.227981 C 46.197706 79.528315 45.741283 79.775528 45.203356 79.941018 C 44.663391 80.098336 44.056186 80.178016 43.383778 80.178016 C 42.768422 80.180059 42.159179 80.126939 41.554011 80.018656 C 40.991633 79.918544 40.520947 79.769399 40.139915 79.57122 L 40.139915 78.006215 L 40.816399 78.286118 L 41.617177 78.523116 L 42.487233 78.700865 C 42.780647 78.739683 43.078137 78.760114 43.375627 78.762157 C 44.312924 78.762157 45.005709 78.586452 45.449906 78.235041 C 45.898178 77.88363 46.12639 77.381031 46.12639 76.723157 C 46.132502 76.439168 46.087675 76.165394 45.993945 75.89775 C 45.912441 75.662795 45.763696 75.44827 45.545673 75.254177 C 45.345988 75.055998 45.050536 74.855775 44.693956 74.684156 C 44.253834 74.45533 43.803524 74.253065 43.33895 74.079402 C 42.864189 73.897568 42.411841 73.674871 41.977832 73.411313 C 41.596801 73.164099 41.280972 72.888283 41.026272 72.585906 C 40.78176 72.279443 40.596338 71.934161 40.472045 71.548018 C 40.355901 71.161874 40.296811 70.722611 40.296811 70.230227 C 40.296811 69.713326 40.39054 69.255674 40.578 68.8491 C 40.761384 68.448655 41.024235 68.10746 41.368589 67.8296 C 41.729245 67.535395 42.134728 67.322914 42.580962 67.188071 C 43.055724 67.043012 43.57735 66.967417 44.145841 66.967417 C 44.8427 66.967417 45.468244 67.034839 46.02451 67.169683 C 46.582812 67.30044 47.07795 67.46593 47.509921 67.670239 L 46.910866 69.039107 C 46.529835 68.869531 46.095826 68.724472 45.610876 68.599844 C 45.119814 68.469086 44.622639 68.40575 44.115277 68.407793 C 43.400078 68.407793 42.845851 68.573284 42.456669 68.906307 C 42.259021 69.071797 42.106201 69.272019 42.002283 69.504931 C 41.896328 69.739886 41.847426 69.985056 41.855576 70.242485 C 41.855576 70.577552 41.900403 70.86767 41.98802 71.11284 C 42.083788 71.366183 42.230495 71.586836 42.426105 71.772757 C 42.631902 71.964808 42.902903 72.150728 43.226882 72.326434 C 43.567162 72.49601 43.982832 72.677845 44.475932 72.871938 C 44.954769 73.055816 45.421379 73.272383 45.871689 73.52164 C 46.246608 73.721862 46.58485 73.973162 46.88234 74.277582 C 47.155379 74.559528 47.357101 74.884379 47.489545 75.252134 C 47.628102 75.623976 47.703493 76.075498 47.703493 76.578097 M 53.657366 80.175973 C 53.064424 80.175973 52.510196 80.075862 51.99672 79.9022 C 51.47917 79.716279 51.030897 79.424117 50.651903 79.023672 C 50.272909 78.619141 49.971344 78.106326 49.755358 77.485228 C 49.539373 76.858 49.43138 76.104101 49.43138 75.225574 C 49.43138 74.304142 49.531222 73.525726 49.765546 72.88624 C 49.987645 72.242667 50.291248 71.72168 50.678392 71.323278 C 51.065536 70.92079 51.521959 70.628629 52.049698 70.442708 C 52.569287 70.260873 53.129627 70.170977 53.728682 70.170977 C 54.178992 70.168934 54.625227 70.217968 55.065349 70.31808 C 55.44638 70.39776 55.813149 70.522388 56.163616 70.687878 L 55.688855 72.042445 C 55.554373 71.981152 55.405628 71.928032 55.240583 71.874912 C 55.077574 71.815662 54.910491 71.766628 54.74137 71.725766 C 54.564099 71.678775 54.390903 71.642 54.221782 71.619526 C 54.060811 71.590923 53.899841 71.576621 53.73887 71.576621 C 52.817874 71.576621 52.137315 71.872869 51.725719 72.463321 C 51.303936 73.049687 51.092025 73.964989 51.092025 75.205143 C 51.092025 76.441211 51.29171 77.348341 51.725719 77.922449 C 52.153616 78.490427 52.799536 78.774416 53.667554 78.774416 C 54.101563 78.778502 54.52946 78.727425 54.949206 78.615055 C 55.311899 78.514944 55.662366 78.384186 56.004683 78.228912 L 56.004683 79.652943 C 55.682742 79.826605 55.342463 79.95532 54.985882 80.039086 C 54.627264 80.128982 54.164729 80.171887 53.643103 80.171887 M 62.412941 70.17302 L 62.98347 70.199581 C 63.166854 70.207753 63.3482 70.228184 63.527509 70.262916 L 63.327824 71.738025 L 62.828612 71.66856 C 62.657453 71.644043 62.49852 71.633827 62.3457 71.633827 C 61.974857 71.633827 61.638652 71.709422 61.345238 71.862653 C 61.031447 72.013842 60.768596 72.228366 60.554648 72.504182 C 60.322362 72.804516 60.155278 73.139582 60.053398 73.505295 C 59.931142 73.928214 59.872052 74.359305 59.878164 74.798569 L 59.878164 80.000268 L 58.278647 80.000268 L 58.278647 70.350769 L 59.578637 70.350769 L 59.770171 72.115996 L 59.841488 72.115996 L 60.306061 71.386614 C 60.469069 71.159831 60.658566 70.95348 60.870476 70.771645 C 61.080349 70.58981 61.314674 70.446794 61.573449 70.340554 C 61.864826 70.226141 62.166391 70.168934 62.478144 70.17302 M 66.89974 80.000268 L 65.300223 80.000268 L 65.300223 70.350769 L 66.89974 70.350769 L 66.89974 80.000268 M 65.440817 66.97559 C 65.632352 66.8101 65.854451 66.730419 66.107113 66.738592 C 66.231407 66.736549 66.351625 66.756979 66.467769 66.799884 C 66.581874 66.832574 66.681717 66.891823 66.767296 66.97559 C 66.858988 67.065485 66.926229 67.169683 66.969019 67.292268 C 67.021996 67.414853 67.048485 67.563999 67.048485 67.739704 C 67.048485 68.0809 66.954756 68.334242 66.769334 68.505862 C 66.587987 68.669309 66.369964 68.751032 66.109151 68.751032 C 65.848338 68.751032 65.616051 68.628447 65.434705 68.462957 C 65.257433 68.29951 65.173892 68.042081 65.175929 67.719273 C 65.177967 67.388293 65.275772 67.132907 65.440817 66.97559 Z M 74.245295 80.175973 C 73.927429 80.178016 73.613638 80.141241 73.30596 80.06156 C 73.024771 79.985966 72.768034 79.885855 72.539822 79.761227 C 72.321799 79.636598 72.122114 79.487453 71.942805 79.313791 C 71.775721 79.146258 71.622901 78.968509 71.484344 78.776459 L 71.380427 78.776459 L 71.433404 79.34648 L 71.468044 79.822519 L 71.486382 80.20049 L 71.486382 84.321396 L 69.886865 84.321396 L 69.886865 70.350769 L 71.186855 70.350769 L 71.415066 71.650172 L 71.486382 71.650172 C 71.620864 71.445863 71.773684 71.255856 71.942805 71.078108 C 72.116001 70.89423 72.311611 70.738955 72.531672 70.612284 C 72.772109 70.473354 73.026809 70.367114 73.29781 70.297649 C 73.607526 70.211839 73.923354 70.168934 74.245295 70.17302 C 74.795447 70.17302 75.298735 70.279261 75.749045 70.489699 C 76.199355 70.700137 76.584462 71.016815 76.898252 71.439734 C 77.220194 71.856524 77.468781 72.375468 77.646052 72.996566 C 77.823324 73.617665 77.910941 74.338874 77.910941 75.158152 C 77.910941 75.983559 77.821286 76.710898 77.646052 77.338126 C 77.470819 77.957181 77.220194 78.480211 76.898252 78.901087 C 76.582424 79.324006 76.199355 79.642728 75.749045 79.859295 C 75.298735 80.059517 74.685417 80.175973 74.135264 80.175973 M 73.937617 71.501027 C 73.49342 71.501027 73.114426 71.568449 72.80471 71.703292 C 72.49907 71.838136 72.250483 72.042445 72.056911 72.318262 C 71.863338 72.592035 71.728857 72.935274 71.635127 73.345934 C 71.53936 73.824016 71.490457 74.308228 71.486382 74.796526 L 71.486382 75.156109 C 71.482307 75.687312 71.518984 76.214428 71.600488 76.737458 C 71.681992 77.19511 71.816474 77.581253 72.003933 77.897931 C 72.19343 78.206438 72.44813 78.443436 72.768034 78.610969 C 73.085899 78.768286 73.481194 78.847967 73.955955 78.847967 C 74.756733 78.847967 75.325224 78.527202 75.696067 77.889759 C 76.066911 77.250273 76.258446 76.332927 76.258446 75.139764 C 76.258446 73.917998 76.070986 73.008825 75.696067 72.406114 C 75.323186 71.803404 74.74247 71.501027 73.939655 71.501027 M 83.239269 78.866355 C 83.343187 78.866355 83.461368 78.856139 83.591775 78.847967 L 83.978919 78.803019 L 84.311048 78.741726 L 84.549447 78.680434 L 84.549447 79.894027 C 84.472018 79.92876 84.376251 79.963492 84.24992 79.998225 C 84.121551 80.035 83.993182 80.063603 83.862776 80.086077 C 83.722181 80.116724 83.575474 80.135112 83.422654 80.14737 C 83.273909 80.165758 83.123126 80.17393 82.974381 80.17393 C 82.611688 80.17393 82.273446 80.126939 81.973919 80.035 C 81.664203 79.941018 81.393202 79.779614 81.164991 79.550789 C 80.940855 79.321963 80.765621 79.0155 80.637252 78.627313 C 80.506845 78.235041 80.44368 77.742657 80.44368 77.150162 L 80.44368 71.550061 L 79.082562 71.550061 L 79.082562 70.839067 L 80.44368 70.15259 L 81.130351 68.131977 L 82.053385 68.131977 L 82.053385 70.346683 L 84.500545 70.346683 L 84.500545 71.550061 L 82.073761 71.550061 L 82.073761 77.150162 C 82.073761 77.71814 82.173604 78.145145 82.3468 78.43322 C 82.517958 78.719252 82.837862 78.862268 83.259645 78.862268 " stroke="#000000" stroke-width="1" stroke-opacity="1" stroke-miterlimit="4"/></g></svg>