<svg xmlns="http://www.w3.org/2000/svg" xmlns:xlink="http://www.w3.org/1999/xlink" width="512" zoomAndPan="magnify" viewBox="0 0 384 362.999992" height="484" preserveAspectRatio="xMidYMid meet" version="1.0"><defs><clipPath id="2936cbd628"><path d="M 36.300781 100 L 107.550781 100 L 107.550781 181.71875 L 36.300781 181.71875 Z M 36.300781 100 " clip-rule="nonzero"/></clipPath><clipPath id="8af470c145"><path d="M 42 81.21875 L 57 81.21875 L 57 95 L 42 95 Z M 42 81.21875 " clip-rule="nonzero"/></clipPath><clipPath id="04756e05be"><path d="M 58 81.21875 L 71 81.21875 L 71 95 L 58 95 Z M 58 81.21875 " clip-rule="nonzero"/></clipPath><clipPath id="313c9bc646"><path d="M 72 81.21875 L 88 81.21875 L 88 95 L 72 95 Z M 72 81.21875 " clip-rule="nonzero"/></clipPath><clipPath id="46e9687a1f"><path d="M 90 81.21875 L 102 81.21875 L 102 95 L 90 95 Z M 90 81.21875 " clip-rule="nonzero"/></clipPath><clipPath id="0a48ac3f78"><path d="M 128.667969 115.632812 L 255.417969 115.632812 L 255.417969 181.632812 L 128.667969 181.632812 Z M 128.667969 115.632812 " clip-rule="nonzero"/></clipPath><clipPath id="c7669fabee"><path d="M 128.667969 148.644531 C 128.667969 166.828125 157.042969 181.570312 192.039062 181.570312 C 227.039062 181.570312 255.414062 166.828125 255.414062 148.644531 C 255.414062 130.460938 227.039062 115.714844 192.039062 115.714844 C 157.042969 115.714844 128.667969 130.460938 128.667969 148.644531 " clip-rule="nonzero"/></clipPath><clipPath id="021c98bc45"><path d="M 128.667969 148.644531 C 128.667969 166.828125 157.042969 181.570312 192.039062 181.570312 C 227.039062 181.570312 255.414062 166.828125 255.414062 148.644531 C 255.414062 130.460938 227.039062 115.714844 192.039062 115.714844 C 157.042969 115.714844 128.667969 130.460938 128.667969 148.644531 " clip-rule="nonzero"/></clipPath><radialGradient gradientTransform="matrix(1.00618, 0, 0, 0.99382, 166.716828, 127.292437)" gradientUnits="userSpaceOnUse" r="82.707583" cx="0" id="086052e1d2" cy="0" fx="0" fy="0"><stop stop-opacity="1" stop-color="rgb(68.199158%, 69.799805%, 83.499146%)" offset="0"/><stop stop-opacity="1" stop-color="rgb(68.199158%, 69.799805%, 83.499146%)" offset="0.25"/><stop stop-opacity="1" stop-color="rgb(68.164062%, 69.764709%, 83.473206%)" offset="0.296875"/><stop stop-opacity="1" stop-color="rgb(67.956543%, 69.555664%, 83.317566%)" offset="0.300781"/><stop stop-opacity="1" stop-color="rgb(67.608643%, 69.20929%, 83.059692%)" offset="0.304688"/><stop stop-opacity="1" stop-color="rgb(67.260742%, 68.861389%, 82.800293%)" offset="0.308594"/><stop stop-opacity="1" stop-color="rgb(66.914368%, 68.513489%, 82.542419%)" offset="0.3125"/><stop stop-opacity="1" stop-color="rgb(66.566467%, 68.167114%, 82.28302%)" offset="0.316406"/><stop stop-opacity="1" stop-color="rgb(66.220093%, 67.819214%, 82.025146%)" offset="0.320312"/><stop stop-opacity="1" stop-color="rgb(65.872192%, 67.472839%, 81.765747%)" offset="0.324219"/><stop stop-opacity="1" stop-color="rgb(65.525818%, 67.124939%, 81.506348%)" offset="0.328125"/><stop stop-opacity="1" stop-color="rgb(65.177917%, 66.778564%, 81.248474%)" offset="0.332031"/><stop stop-opacity="1" stop-color="rgb(64.831543%, 66.430664%, 80.989075%)" offset="0.335938"/><stop stop-opacity="1" stop-color="rgb(64.483643%, 66.08429%, 80.731201%)" offset="0.339844"/><stop stop-opacity="1" stop-color="rgb(64.135742%, 65.736389%, 80.471802%)" offset="0.34375"/><stop stop-opacity="1" stop-color="rgb(63.789368%, 65.388489%, 80.213928%)" offset="0.347656"/><stop stop-opacity="1" stop-color="rgb(63.441467%, 65.042114%, 79.954529%)" offset="0.351562"/><stop stop-opacity="1" stop-color="rgb(63.095093%, 64.694214%, 79.696655%)" offset="0.355469"/><stop stop-opacity="1" stop-color="rgb(62.747192%, 64.347839%, 79.437256%)" offset="0.359375"/><stop stop-opacity="1" stop-color="rgb(62.400818%, 63.999939%, 79.179382%)" offset="0.363281"/><stop stop-opacity="1" stop-color="rgb(62.052917%, 63.653564%, 78.919983%)" offset="0.367188"/><stop stop-opacity="1" stop-color="rgb(61.706543%, 63.305664%, 78.662109%)" offset="0.371094"/><stop stop-opacity="1" stop-color="rgb(61.358643%, 62.95929%, 78.40271%)" offset="0.375"/><stop stop-opacity="1" stop-color="rgb(61.010742%, 62.611389%, 78.144836%)" offset="0.378906"/><stop stop-opacity="1" stop-color="rgb(60.664368%, 62.263489%, 77.885437%)" offset="0.382812"/><stop stop-opacity="1" stop-color="rgb(60.316467%, 61.917114%, 77.627563%)" offset="0.386719"/><stop stop-opacity="1" stop-color="rgb(59.970093%, 61.569214%, 77.368164%)" offset="0.390625"/><stop stop-opacity="1" stop-color="rgb(59.622192%, 61.222839%, 77.108765%)" offset="0.394531"/><stop stop-opacity="1" stop-color="rgb(59.275818%, 60.874939%, 76.850891%)" offset="0.398438"/><stop stop-opacity="1" stop-color="rgb(58.927917%, 60.528564%, 76.591492%)" offset="0.402344"/><stop stop-opacity="1" stop-color="rgb(58.581543%, 60.180664%, 76.333618%)" offset="0.40625"/><stop stop-opacity="1" stop-color="rgb(58.233643%, 59.83429%, 76.074219%)" offset="0.410156"/><stop stop-opacity="1" stop-color="rgb(57.885742%, 59.486389%, 75.816345%)" offset="0.414062"/><stop stop-opacity="1" stop-color="rgb(57.539368%, 59.138489%, 75.556946%)" offset="0.417969"/><stop stop-opacity="1" stop-color="rgb(57.191467%, 58.792114%, 75.299072%)" offset="0.421875"/><stop stop-opacity="1" stop-color="rgb(56.845093%, 58.444214%, 75.039673%)" offset="0.425781"/><stop stop-opacity="1" stop-color="rgb(56.497192%, 58.097839%, 74.781799%)" offset="0.429688"/><stop stop-opacity="1" stop-color="rgb(56.150818%, 57.749939%, 74.5224%)" offset="0.433594"/><stop stop-opacity="1" stop-color="rgb(55.802917%, 57.403564%, 74.264526%)" offset="0.4375"/><stop stop-opacity="1" stop-color="rgb(55.456543%, 57.055664%, 74.005127%)" offset="0.441406"/><stop stop-opacity="1" stop-color="rgb(55.108643%, 56.70929%, 73.747253%)" offset="0.445312"/><stop stop-opacity="1" stop-color="rgb(54.760742%, 56.361389%, 73.487854%)" offset="0.449219"/><stop stop-opacity="1" stop-color="rgb(54.414368%, 56.013489%, 73.22998%)" offset="0.453125"/><stop stop-opacity="1" stop-color="rgb(54.066467%, 55.667114%, 72.970581%)" offset="0.457031"/><stop stop-opacity="1" stop-color="rgb(53.720093%, 55.319214%, 72.711182%)" offset="0.460938"/><stop stop-opacity="1" stop-color="rgb(53.372192%, 54.972839%, 72.453308%)" offset="0.464844"/><stop stop-opacity="1" stop-color="rgb(53.025818%, 54.624939%, 72.193909%)" offset="0.46875"/><stop stop-opacity="1" stop-color="rgb(52.677917%, 54.278564%, 71.936035%)" offset="0.472656"/><stop stop-opacity="1" stop-color="rgb(52.331543%, 53.930664%, 71.676636%)" offset="0.476562"/><stop stop-opacity="1" stop-color="rgb(51.983643%, 53.58429%, 71.418762%)" offset="0.480469"/><stop stop-opacity="1" stop-color="rgb(51.635742%, 53.236389%, 71.159363%)" offset="0.484375"/><stop stop-opacity="1" stop-color="rgb(51.289368%, 52.888489%, 70.901489%)" offset="0.488281"/><stop stop-opacity="1" stop-color="rgb(50.941467%, 52.542114%, 70.64209%)" offset="0.492188"/><stop stop-opacity="1" stop-color="rgb(50.595093%, 52.194214%, 70.384216%)" offset="0.496094"/><stop stop-opacity="1" stop-color="rgb(50.247192%, 51.847839%, 70.124817%)" offset="0.5"/><stop stop-opacity="1" stop-color="rgb(49.900818%, 51.499939%, 69.866943%)" offset="0.503906"/><stop stop-opacity="1" stop-color="rgb(49.552917%, 51.153564%, 69.607544%)" offset="0.507812"/><stop stop-opacity="1" stop-color="rgb(49.206543%, 50.805664%, 69.34967%)" offset="0.511719"/><stop stop-opacity="1" stop-color="rgb(48.858643%, 50.45929%, 69.090271%)" offset="0.515625"/><stop stop-opacity="1" stop-color="rgb(48.510742%, 50.111389%, 68.832397%)" offset="0.519531"/><stop stop-opacity="1" stop-color="rgb(48.164368%, 49.763489%, 68.572998%)" offset="0.523438"/><stop stop-opacity="1" stop-color="rgb(47.816467%, 49.417114%, 68.313599%)" offset="0.527344"/><stop stop-opacity="1" stop-color="rgb(47.470093%, 49.069214%, 68.055725%)" offset="0.53125"/><stop stop-opacity="1" stop-color="rgb(47.122192%, 48.722839%, 67.796326%)" offset="0.535156"/><stop stop-opacity="1" stop-color="rgb(46.775818%, 48.374939%, 67.538452%)" offset="0.539062"/><stop stop-opacity="1" stop-color="rgb(46.427917%, 48.028564%, 67.279053%)" offset="0.542969"/><stop stop-opacity="1" stop-color="rgb(46.081543%, 47.680664%, 67.021179%)" offset="0.546875"/><stop stop-opacity="1" stop-color="rgb(45.733643%, 47.33429%, 66.76178%)" offset="0.550781"/><stop stop-opacity="1" stop-color="rgb(45.385742%, 46.986389%, 66.503906%)" offset="0.554688"/><stop stop-opacity="1" stop-color="rgb(45.039368%, 46.638489%, 66.244507%)" offset="0.558594"/><stop stop-opacity="1" stop-color="rgb(44.691467%, 46.292114%, 65.986633%)" offset="0.5625"/><stop stop-opacity="1" stop-color="rgb(44.345093%, 45.944214%, 65.727234%)" offset="0.566406"/><stop stop-opacity="1" stop-color="rgb(43.997192%, 45.597839%, 65.46936%)" offset="0.570312"/><stop stop-opacity="1" stop-color="rgb(43.650818%, 45.249939%, 65.209961%)" offset="0.574219"/><stop stop-opacity="1" stop-color="rgb(43.302917%, 44.903564%, 64.952087%)" offset="0.578125"/><stop stop-opacity="1" stop-color="rgb(42.956543%, 44.555664%, 64.692688%)" offset="0.582031"/><stop stop-opacity="1" stop-color="rgb(42.608643%, 44.20929%, 64.434814%)" offset="0.585938"/><stop stop-opacity="1" stop-color="rgb(42.260742%, 43.861389%, 64.175415%)" offset="0.589844"/><stop stop-opacity="1" stop-color="rgb(41.914368%, 43.513489%, 63.916016%)" offset="0.59375"/><stop stop-opacity="1" stop-color="rgb(41.566467%, 43.167114%, 63.658142%)" offset="0.597656"/><stop stop-opacity="1" stop-color="rgb(41.220093%, 42.819214%, 63.398743%)" offset="0.601562"/><stop stop-opacity="1" stop-color="rgb(40.872192%, 42.472839%, 63.140869%)" offset="0.605469"/><stop stop-opacity="1" stop-color="rgb(40.525818%, 42.124939%, 62.88147%)" offset="0.609375"/><stop stop-opacity="1" stop-color="rgb(40.177917%, 41.778564%, 62.623596%)" offset="0.613281"/><stop stop-opacity="1" stop-color="rgb(39.831543%, 41.430664%, 62.364197%)" offset="0.617188"/><stop stop-opacity="1" stop-color="rgb(39.483643%, 41.08429%, 62.106323%)" offset="0.621094"/><stop stop-opacity="1" stop-color="rgb(39.135742%, 40.736389%, 61.846924%)" offset="0.625"/><stop stop-opacity="1" stop-color="rgb(38.789368%, 40.388489%, 61.58905%)" offset="0.628906"/><stop stop-opacity="1" stop-color="rgb(38.441467%, 40.042114%, 61.329651%)" offset="0.632812"/><stop stop-opacity="1" stop-color="rgb(38.095093%, 39.694214%, 61.071777%)" offset="0.636719"/><stop stop-opacity="1" stop-color="rgb(37.747192%, 39.347839%, 60.812378%)" offset="0.640625"/><stop stop-opacity="1" stop-color="rgb(37.400818%, 38.999939%, 60.554504%)" offset="0.644531"/><stop stop-opacity="1" stop-color="rgb(37.052917%, 38.653564%, 60.295105%)" offset="0.648438"/><stop stop-opacity="1" stop-color="rgb(36.706543%, 38.305664%, 60.037231%)" offset="0.652344"/><stop stop-opacity="1" stop-color="rgb(36.358643%, 37.95929%, 59.777832%)" offset="0.65625"/><stop stop-opacity="1" stop-color="rgb(36.010742%, 37.611389%, 59.518433%)" offset="0.660156"/><stop stop-opacity="1" stop-color="rgb(35.664368%, 37.263489%, 59.260559%)" offset="0.664062"/><stop stop-opacity="1" stop-color="rgb(35.316467%, 36.917114%, 59.00116%)" offset="0.667969"/><stop stop-opacity="1" stop-color="rgb(34.970093%, 36.569214%, 58.743286%)" offset="0.671875"/><stop stop-opacity="1" stop-color="rgb(34.622192%, 36.222839%, 58.483887%)" offset="0.675781"/><stop stop-opacity="1" stop-color="rgb(34.275818%, 35.874939%, 58.226013%)" offset="0.679688"/><stop stop-opacity="1" stop-color="rgb(33.927917%, 35.528564%, 57.966614%)" offset="0.683594"/><stop stop-opacity="1" stop-color="rgb(33.581543%, 35.180664%, 57.70874%)" offset="0.6875"/><stop stop-opacity="1" stop-color="rgb(33.233643%, 34.83429%, 57.449341%)" offset="0.691406"/><stop stop-opacity="1" stop-color="rgb(32.885742%, 34.486389%, 57.191467%)" offset="0.695312"/><stop stop-opacity="1" stop-color="rgb(32.539368%, 34.138489%, 56.932068%)" offset="0.699219"/><stop stop-opacity="1" stop-color="rgb(32.191467%, 33.792114%, 56.674194%)" offset="0.703125"/><stop stop-opacity="1" stop-color="rgb(31.845093%, 33.444214%, 56.414795%)" offset="0.707031"/><stop stop-opacity="1" stop-color="rgb(31.497192%, 33.097839%, 56.156921%)" offset="0.710938"/><stop stop-opacity="1" stop-color="rgb(31.150818%, 32.749939%, 55.897522%)" offset="0.714844"/><stop stop-opacity="1" stop-color="rgb(30.802917%, 32.403564%, 55.639648%)" offset="0.71875"/><stop stop-opacity="1" stop-color="rgb(30.456543%, 32.055664%, 55.380249%)" offset="0.722656"/><stop stop-opacity="1" stop-color="rgb(30.108643%, 31.70929%, 55.122375%)" offset="0.726562"/><stop stop-opacity="1" stop-color="rgb(29.760742%, 31.361389%, 54.862976%)" offset="0.730469"/><stop stop-opacity="1" stop-color="rgb(29.414368%, 31.013489%, 54.603577%)" offset="0.734375"/><stop stop-opacity="1" stop-color="rgb(29.066467%, 30.667114%, 54.345703%)" offset="0.738281"/><stop stop-opacity="1" stop-color="rgb(28.720093%, 30.319214%, 54.086304%)" offset="0.742188"/><stop stop-opacity="1" stop-color="rgb(28.372192%, 29.972839%, 53.82843%)" offset="0.746094"/><stop stop-opacity="1" stop-color="rgb(28.199768%, 29.798889%, 53.69873%)" offset="1"/></radialGradient><clipPath id="6c55e5b114"><path d="M 276.59375 100 L 347.84375 100 L 347.84375 181.71875 L 276.59375 181.71875 Z M 276.59375 100 " clip-rule="nonzero"/></clipPath><clipPath id="24e982ed58"><path d="M 293 81.21875 L 305 81.21875 L 305 95 L 293 95 Z M 293 81.21875 " clip-rule="nonzero"/></clipPath><clipPath id="e6de564912"><path d="M 306 81.21875 L 318 81.21875 L 318 95 L 306 95 Z M 306 81.21875 " clip-rule="nonzero"/></clipPath><clipPath id="0039fb6909"><path d="M 319 81.21875 L 331 81.21875 L 331 95 L 319 95 Z M 319 81.21875 " clip-rule="nonzero"/></clipPath><clipPath id="b521832df0"><path d="M 108 259 L 178 259 L 178 292.929688 L 108 292.929688 Z M 108 259 " clip-rule="nonzero"/></clipPath><clipPath id="5d261ba39d"><path d="M 268 277 L 276.90625 277 L 276.90625 286 L 268 286 Z M 268 277 " clip-rule="nonzero"/></clipPath></defs><rect x="-38.4" width="460.8" fill="#ffffff" y="-36.299999" height="435.59999" fill-opacity="1"/><rect x="-38.4" width="460.8" fill="#ffffff" y="-36.299999" height="435.59999" fill-opacity="1"/><rect x="-38.4" width="460.8" fill="#292b2c" y="-36.299999" height="435.59999" fill-opacity="1"/><g clip-path="url(#2936cbd628)"><path fill="#e44d26" d="M 107.535156 100.96875 L 101.046875 173.632812 L 71.894531 181.714844 L 42.820312 173.644531 L 36.34375 100.96875 Z M 107.535156 100.96875 " fill-opacity="1" fill-rule="nonzero"/></g><path fill="#f16529" d="M 71.9375 175.539062 L 95.496094 169.007812 L 101.039062 106.914062 L 71.9375 106.910156 Z M 71.9375 175.539062 " fill-opacity="1" fill-rule="nonzero"/><path fill="#ebebeb" d="M 59.332031 124.738281 L 71.9375 124.738281 L 71.9375 115.824219 L 49.589844 115.824219 L 49.804688 118.214844 L 51.996094 142.777344 L 71.9375 142.777344 L 71.9375 133.867188 L 60.144531 133.867188 Z M 59.332031 124.738281 " fill-opacity="1" fill-rule="nonzero"/><path fill="#ebebeb" d="M 61.339844 147.234375 L 52.390625 147.234375 L 53.640625 161.230469 L 71.898438 166.300781 L 71.9375 166.289062 L 71.9375 157.015625 L 71.898438 157.027344 L 61.972656 154.34375 Z M 61.339844 147.234375 " fill-opacity="1" fill-rule="nonzero"/><g clip-path="url(#8af470c145)"><path fill="#000000" d="M 42.964844 81.21875 L 47.496094 81.21875 L 47.496094 85.695312 L 51.640625 85.695312 L 51.640625 81.21875 L 56.167969 81.21875 L 56.167969 94.769531 L 51.640625 94.769531 L 51.640625 90.234375 L 47.496094 90.234375 L 47.496094 94.769531 L 42.964844 94.769531 Z M 42.964844 81.21875 " fill-opacity="1" fill-rule="nonzero"/></g><g clip-path="url(#04756e05be)"><path fill="#000000" d="M 62.125 85.714844 L 58.136719 85.714844 L 58.136719 81.21875 L 70.644531 81.21875 L 70.644531 85.714844 L 66.652344 85.714844 L 66.652344 94.769531 L 62.125 94.769531 Z M 62.125 85.714844 " fill-opacity="1" fill-rule="nonzero"/></g><g clip-path="url(#313c9bc646)"><path fill="#000000" d="M 72.628906 81.21875 L 77.351562 81.21875 L 80.253906 85.980469 L 83.15625 81.21875 L 87.882812 81.21875 L 87.882812 94.769531 L 83.371094 94.769531 L 83.371094 88.054688 L 80.253906 92.871094 L 80.175781 92.871094 L 77.058594 88.054688 L 77.058594 94.769531 L 72.628906 94.769531 Z M 72.628906 81.21875 " fill-opacity="1" fill-rule="nonzero"/></g><g clip-path="url(#46e9687a1f)"><path fill="#000000" d="M 90.136719 81.21875 L 94.667969 81.21875 L 94.667969 90.292969 L 101.039062 90.292969 L 101.039062 94.769531 L 90.136719 94.769531 Z M 90.136719 81.21875 " fill-opacity="1" fill-rule="nonzero"/></g><path fill="#ffffff" d="M 71.910156 142.777344 L 82.882812 142.777344 L 81.847656 154.339844 L 71.910156 157.023438 L 71.910156 166.292969 L 90.179688 161.230469 L 90.3125 159.722656 L 92.410156 136.257812 L 92.625 133.867188 L 71.910156 133.867188 Z M 71.910156 142.777344 " fill-opacity="1" fill-rule="nonzero"/><path fill="#ffffff" d="M 71.910156 124.714844 L 71.910156 124.738281 L 93.433594 124.738281 L 93.613281 122.734375 L 94.023438 118.214844 L 94.234375 115.824219 L 71.910156 115.824219 Z M 71.910156 124.714844 " fill-opacity="1" fill-rule="nonzero"/><g clip-path="url(#0a48ac3f78)"><g clip-path="url(#c7669fabee)"><g clip-path="url(#021c98bc45)"><path fill="url(#086052e1d2)" d="M 128.667969 115.714844 L 128.667969 181.570312 L 255.414062 181.570312 L 255.414062 115.714844 Z M 128.667969 115.714844 " fill-rule="nonzero"/></g></g></g><path fill="#777bb3" d="M 192.039062 179.125 C 225.671875 179.125 252.9375 165.480469 252.9375 148.644531 C 252.9375 131.808594 225.671875 118.160156 192.039062 118.160156 C 158.40625 118.160156 131.144531 131.808594 131.144531 148.644531 C 131.144531 165.480469 158.40625 179.125 192.039062 179.125 " fill-opacity="1" fill-rule="nonzero"/><path fill="#000000" d="M 163.097656 152.421875 C 165.863281 152.421875 167.925781 151.917969 169.234375 150.925781 C 170.527344 149.945312 171.417969 148.242188 171.886719 145.867188 C 172.324219 143.644531 172.15625 142.09375 171.390625 141.257812 C 170.613281 140.40625 168.921875 139.972656 166.375 139.972656 L 161.957031 139.972656 L 159.503906 152.421875 Z M 148.644531 167.761719 C 148.4375 167.761719 148.242188 167.671875 148.113281 167.515625 C 147.976562 167.351562 147.925781 167.164062 147.96875 166.953125 L 154.460938 133.957031 C 154.492188 133.796875 154.570312 133.664062 154.699219 133.5625 C 154.828125 133.457031 154.972656 133.40625 155.136719 133.40625 L 169.132812 133.40625 C 173.53125 133.40625 176.804688 134.582031 178.859375 136.914062 C 180.929688 139.25 181.566406 142.519531 180.757812 146.628906 C 180.429688 148.304688 179.863281 149.859375 179.078125 151.25 C 178.289062 152.644531 177.246094 153.933594 175.980469 155.082031 C 174.464844 156.484375 172.746094 157.5 170.882812 158.101562 C 169.050781 158.691406 166.691406 158.988281 163.882812 158.988281 L 158.214844 158.988281 L 156.597656 167.210938 C 156.566406 167.371094 156.484375 167.503906 156.359375 167.605469 C 156.230469 167.710938 156.085938 167.761719 155.921875 167.761719 L 148.640625 167.761719 Z M 148.644531 167.761719 " fill-opacity="1" fill-rule="nonzero"/><path fill="#ffffff" d="M 162.523438 140.648438 L 166.375 140.648438 C 169.449219 140.648438 170.519531 141.316406 170.882812 141.714844 C 171.484375 142.375 171.597656 143.765625 171.210938 145.738281 C 170.777344 147.945312 169.96875 149.507812 168.816406 150.386719 C 167.632812 151.289062 165.707031 151.742188 163.097656 151.742188 L 160.339844 151.742188 Z M 169.128906 132.726562 L 155.136719 132.726562 C 154.808594 132.726562 154.515625 132.828125 154.261719 133.035156 C 154.007812 133.242188 153.851562 133.507812 153.785156 133.824219 L 147.292969 166.824219 C 147.253906 167.023438 147.261719 167.222656 147.3125 167.417969 C 147.363281 167.613281 147.453125 167.792969 147.582031 167.949219 C 147.714844 168.105469 147.871094 168.226562 148.058594 168.3125 C 148.242188 168.398438 148.4375 168.441406 148.644531 168.441406 L 155.921875 168.441406 C 156.25 168.441406 156.542969 168.339844 156.796875 168.132812 C 157.050781 167.925781 157.207031 167.664062 157.273438 167.34375 L 158.78125 159.667969 L 163.882812 159.667969 C 166.765625 159.667969 169.195312 159.359375 171.097656 158.746094 C 173.054688 158.117188 174.855469 157.054688 176.449219 155.582031 C 177.769531 154.382812 178.855469 153.039062 179.679688 151.582031 C 180.5 150.128906 181.09375 148.503906 181.433594 146.761719 C 182.285156 142.433594 181.59375 138.972656 179.378906 136.46875 C 177.183594 133.984375 173.738281 132.726562 169.132812 132.726562 M 158.671875 153.105469 L 163.097656 153.105469 C 166.03125 153.105469 168.21875 152.558594 169.65625 151.464844 C 171.089844 150.375 172.058594 148.550781 172.5625 145.996094 C 173.042969 143.542969 172.824219 141.8125 171.90625 140.804688 C 170.984375 139.796875 169.140625 139.292969 166.375 139.292969 L 161.390625 139.292969 L 158.671875 153.105469 M 169.132812 134.085938 C 173.34375 134.085938 176.414062 135.175781 178.34375 137.359375 C 180.273438 139.542969 180.855469 142.589844 180.085938 146.5 C 179.769531 148.113281 179.230469 149.585938 178.476562 150.921875 C 177.722656 152.253906 176.734375 153.476562 175.515625 154.585938 C 174.0625 155.925781 172.449219 156.882812 170.671875 157.453125 C 168.894531 158.027344 166.632812 158.3125 163.882812 158.3125 L 157.648438 158.3125 L 155.921875 167.085938 L 148.644531 167.085938 L 155.136719 134.089844 L 169.132812 134.089844 " fill-opacity="1" fill-rule="nonzero"/><path fill="#000000" d="M 197.445312 158.988281 C 197.238281 158.988281 197.046875 158.898438 196.914062 158.742188 C 196.785156 158.585938 196.730469 158.378906 196.769531 158.179688 L 199.644531 143.578125 C 199.914062 142.191406 199.847656 141.195312 199.453125 140.773438 C 199.210938 140.515625 198.484375 140.082031 196.335938 140.082031 L 191.128906 140.082031 L 187.519531 158.4375 C 187.488281 158.597656 187.410156 158.730469 187.28125 158.832031 C 187.15625 158.9375 187.007812 158.988281 186.84375 158.988281 L 179.625 158.988281 C 179.519531 158.988281 179.421875 158.964844 179.332031 158.921875 C 179.238281 158.878906 179.160156 158.820312 179.09375 158.742188 C 179.027344 158.664062 178.984375 158.574219 178.957031 158.476562 C 178.933594 158.378906 178.929688 158.277344 178.949219 158.179688 L 185.441406 125.183594 C 185.472656 125.023438 185.550781 124.890625 185.679688 124.789062 C 185.808594 124.683594 185.953125 124.632812 186.117188 124.632812 L 193.335938 124.632812 C 193.441406 124.632812 193.539062 124.652344 193.628906 124.695312 C 193.722656 124.742188 193.800781 124.800781 193.867188 124.878906 C 193.933594 124.957031 193.980469 125.046875 194.003906 125.144531 C 194.027344 125.242188 194.03125 125.339844 194.011719 125.441406 L 192.445312 133.40625 L 198.042969 133.40625 C 202.308594 133.40625 205.199219 134.148438 206.882812 135.675781 C 208.601562 137.234375 209.136719 139.726562 208.476562 143.082031 L 205.457031 158.4375 C 205.425781 158.597656 205.34375 158.730469 205.21875 158.832031 C 205.089844 158.9375 204.945312 158.988281 204.78125 158.988281 Z M 197.445312 158.988281 " fill-opacity="1" fill-rule="nonzero"/><path fill="#ffffff" d="M 193.335938 123.953125 L 186.117188 123.953125 C 185.789062 123.953125 185.496094 124.054688 185.242188 124.261719 C 184.988281 124.46875 184.832031 124.734375 184.765625 125.050781 L 178.273438 158.050781 C 178.234375 158.25 178.242188 158.445312 178.292969 158.644531 C 178.34375 158.839844 178.433594 159.015625 178.5625 159.171875 C 178.695312 159.328125 178.851562 159.449219 179.039062 159.539062 C 179.222656 159.625 179.417969 159.667969 179.625 159.667969 L 186.84375 159.667969 C 187.171875 159.667969 187.464844 159.5625 187.71875 159.355469 C 187.972656 159.148438 188.132812 158.886719 188.195312 158.566406 L 191.699219 140.761719 L 196.335938 140.761719 C 198.480469 140.761719 198.929688 141.214844 198.949219 141.234375 C 199.078125 141.375 199.25 142.015625 198.96875 143.449219 L 196.097656 158.050781 C 196.058594 158.25 196.0625 158.445312 196.113281 158.644531 C 196.164062 158.839844 196.253906 159.015625 196.386719 159.171875 C 196.515625 159.328125 196.675781 159.449219 196.859375 159.539062 C 197.046875 159.625 197.242188 159.667969 197.445312 159.667969 L 204.78125 159.667969 C 205.109375 159.667969 205.402344 159.5625 205.65625 159.355469 C 205.910156 159.148438 206.070312 158.886719 206.132812 158.566406 L 209.152344 143.210938 C 209.859375 139.609375 209.253906 136.902344 207.351562 135.175781 C 205.535156 133.527344 202.488281 132.726562 198.042969 132.726562 L 193.28125 132.726562 L 194.6875 125.570312 C 194.726562 125.371094 194.722656 125.171875 194.671875 124.976562 C 194.621094 124.78125 194.53125 124.605469 194.398438 124.445312 C 194.269531 124.289062 194.109375 124.167969 193.925781 124.082031 C 193.738281 123.996094 193.542969 123.953125 193.339844 123.953125 M 193.339844 125.3125 L 191.613281 134.085938 L 198.042969 134.085938 C 202.09375 134.085938 204.882812 134.78125 206.421875 136.175781 C 207.957031 137.570312 208.417969 139.828125 207.804688 142.953125 L 204.78125 158.308594 L 197.445312 158.308594 L 200.320312 143.707031 C 200.644531 142.046875 200.527344 140.914062 199.957031 140.3125 C 199.390625 139.707031 198.183594 139.40625 196.335938 139.40625 L 190.5625 139.40625 L 186.84375 158.308594 L 179.625 158.308594 L 186.117188 125.3125 L 193.335938 125.3125 " fill-opacity="1" fill-rule="nonzero"/><path fill="#000000" d="M 219.902344 152.421875 C 222.667969 152.421875 224.730469 151.917969 226.039062 150.925781 C 227.328125 149.945312 228.222656 148.242188 228.691406 145.867188 C 229.125 143.644531 228.960938 142.09375 228.195312 141.257812 C 227.414062 140.40625 225.726562 139.972656 223.179688 139.972656 L 218.757812 139.972656 L 216.308594 152.421875 Z M 205.445312 167.761719 C 205.242188 167.761719 205.046875 167.671875 204.917969 167.515625 C 204.777344 167.347656 204.730469 167.164062 204.773438 166.953125 L 211.265625 133.953125 C 211.296875 133.796875 211.375 133.664062 211.503906 133.558594 C 211.628906 133.457031 211.777344 133.40625 211.941406 133.40625 L 225.933594 133.40625 C 230.332031 133.40625 233.605469 134.582031 235.664062 136.910156 C 237.734375 139.25 238.371094 142.519531 237.5625 146.628906 C 237.234375 148.300781 236.667969 149.855469 235.878906 151.25 C 235.089844 152.644531 234.050781 153.933594 232.78125 155.082031 C 231.265625 156.484375 229.550781 157.5 227.6875 158.097656 C 225.851562 158.6875 223.496094 158.988281 220.683594 158.988281 L 215.011719 158.988281 L 213.394531 167.210938 C 213.363281 167.371094 213.285156 167.503906 213.160156 167.605469 C 213.03125 167.710938 212.886719 167.761719 212.71875 167.761719 L 205.441406 167.761719 Z M 205.445312 167.761719 " fill-opacity="1" fill-rule="nonzero"/><path fill="#ffffff" d="M 219.328125 140.648438 L 223.179688 140.648438 C 226.253906 140.648438 227.324219 141.316406 227.6875 141.714844 C 228.289062 142.375 228.402344 143.765625 228.015625 145.734375 C 227.582031 147.945312 226.773438 149.507812 225.617188 150.386719 C 224.433594 151.289062 222.511719 151.742188 219.902344 151.742188 L 217.144531 151.742188 Z M 225.933594 132.726562 L 211.941406 132.726562 C 211.609375 132.726562 211.320312 132.828125 211.066406 133.035156 C 210.8125 133.242188 210.652344 133.507812 210.589844 133.824219 L 204.097656 166.824219 C 204.058594 167.023438 204.0625 167.222656 204.113281 167.417969 C 204.164062 167.613281 204.253906 167.792969 204.386719 167.949219 C 204.515625 168.105469 204.675781 168.226562 204.859375 168.3125 C 205.046875 168.398438 205.242188 168.441406 205.445312 168.441406 L 212.722656 168.441406 C 213.054688 168.441406 213.34375 168.339844 213.597656 168.132812 C 213.851562 167.925781 214.011719 167.664062 214.074219 167.34375 L 215.582031 159.667969 L 220.683594 159.667969 C 223.566406 159.667969 225.996094 159.359375 227.898438 158.746094 C 229.855469 158.117188 231.660156 157.054688 233.253906 155.582031 C 234.570312 154.382812 235.65625 153.039062 236.480469 151.582031 C 237.304688 150.128906 237.894531 148.503906 238.238281 146.761719 C 239.089844 142.433594 238.398438 138.972656 236.179688 136.464844 C 233.988281 133.984375 230.539062 132.726562 225.933594 132.726562 M 215.476562 153.105469 L 219.902344 153.105469 C 222.835938 153.105469 225.019531 152.558594 226.457031 151.464844 C 227.894531 150.375 228.863281 148.550781 229.363281 145.996094 C 229.847656 143.542969 229.628906 141.8125 228.707031 140.804688 C 227.785156 139.796875 225.941406 139.292969 223.179688 139.292969 L 218.191406 139.292969 L 215.476562 153.105469 M 225.933594 134.085938 C 230.144531 134.085938 233.214844 135.175781 235.144531 137.359375 C 237.078125 139.542969 237.65625 142.589844 236.886719 146.5 C 236.570312 148.113281 236.035156 149.585938 235.28125 150.921875 C 234.523438 152.253906 233.535156 153.476562 232.316406 154.585938 C 230.863281 155.925781 229.25 156.882812 227.472656 157.453125 C 225.695312 158.027344 223.433594 158.3125 220.683594 158.3125 L 214.449219 158.3125 L 212.722656 167.085938 L 205.445312 167.085938 L 211.941406 134.085938 L 225.933594 134.085938 " fill-opacity="1" fill-rule="nonzero"/><g clip-path="url(#6c55e5b114)"><path fill="#264de4" d="M 312.1875 181.714844 L 283.113281 173.644531 L 276.632812 100.96875 L 347.824219 100.96875 L 341.339844 173.632812 Z M 312.1875 181.714844 " fill-opacity="1" fill-rule="nonzero"/></g><path fill="#2965f1" d="M 335.789062 169.007812 L 341.332031 106.914062 L 312.230469 106.910156 L 312.230469 175.535156 Z M 335.789062 169.007812 " fill-opacity="1" fill-rule="nonzero"/><path fill="#ebebeb" d="M 291.488281 133.867188 L 292.285156 142.777344 L 312.230469 142.777344 L 312.230469 133.867188 Z M 291.488281 133.867188 " fill-opacity="1" fill-rule="nonzero"/><path fill="#ebebeb" d="M 289.882812 115.824219 L 290.691406 124.738281 L 312.230469 124.738281 L 312.230469 115.824219 Z M 289.882812 115.824219 " fill-opacity="1" fill-rule="nonzero"/><path fill="#ebebeb" d="M 312.230469 157.015625 L 312.191406 157.027344 L 302.265625 154.34375 L 301.632812 147.234375 L 292.683594 147.234375 L 293.933594 161.230469 L 312.1875 166.300781 L 312.230469 166.289062 Z M 312.230469 157.015625 " fill-opacity="1" fill-rule="nonzero"/><g clip-path="url(#24e982ed58)"><path fill="#000000" d="M 293.390625 81.21875 L 304.183594 81.21875 L 304.183594 85.734375 L 297.902344 85.734375 L 297.902344 90.25 L 304.183594 90.25 L 304.183594 94.761719 L 293.390625 94.761719 Z M 293.390625 81.21875 " fill-opacity="1" fill-rule="nonzero"/></g><g clip-path="url(#e6de564912)"><path fill="#000000" d="M 306.34375 81.21875 L 317.136719 81.21875 L 317.136719 85.144531 L 310.859375 85.144531 L 310.859375 85.929688 L 317.136719 85.929688 L 317.136719 94.960938 L 306.34375 94.960938 L 306.34375 90.835938 L 312.625 90.835938 L 312.625 90.050781 L 306.34375 90.050781 Z M 306.34375 81.21875 " fill-opacity="1" fill-rule="nonzero"/></g><g clip-path="url(#0039fb6909)"><path fill="#000000" d="M 319.296875 81.21875 L 330.089844 81.21875 L 330.089844 85.144531 L 323.808594 85.144531 L 323.808594 85.929688 L 330.089844 85.929688 L 330.089844 94.960938 L 319.296875 94.960938 L 319.296875 90.835938 L 325.574219 90.835938 L 325.574219 90.050781 L 319.296875 90.050781 Z M 319.296875 81.21875 " fill-opacity="1" fill-rule="nonzero"/></g><path fill="#ffffff" d="M 332.917969 133.867188 L 334.527344 115.824219 L 312.199219 115.824219 L 312.199219 124.738281 L 324.757812 124.738281 L 323.949219 133.867188 L 312.199219 133.867188 L 312.199219 142.777344 L 323.175781 142.777344 L 322.140625 154.339844 L 312.199219 157.023438 L 312.199219 166.292969 L 330.472656 161.230469 L 330.605469 159.722656 L 332.699219 136.257812 Z M 332.917969 133.867188 " fill-opacity="1" fill-rule="nonzero"/><g clip-path="url(#b521832df0)"><path fill="#00618a" d="M 108.035156 285.21875 L 113.578125 285.21875 L 113.578125 263.289062 L 122.15625 282.414062 C 123.171875 284.71875 124.558594 285.546875 127.273438 285.546875 C 129.992188 285.546875 131.324219 284.726562 132.339844 282.414062 L 140.917969 263.289062 L 140.917969 285.226562 L 146.464844 285.226562 L 146.464844 263.324219 C 146.464844 261.1875 145.609375 260.15625 143.851562 259.621094 C 139.640625 258.304688 136.816406 259.445312 135.539062 262.292969 L 127.117188 281.164062 L 118.960938 262.285156 C 117.734375 259.433594 114.855469 258.296875 110.648438 259.613281 C 108.886719 260.148438 108.035156 261.179688 108.035156 263.316406 Z M 151.070312 267.363281 L 156.613281 267.363281 L 156.613281 279.449219 C 156.558594 280.105469 156.820312 281.648438 159.859375 281.695312 C 161.40625 281.71875 171.816406 281.695312 171.910156 281.695312 L 171.910156 267.300781 L 177.464844 267.300781 C 177.488281 267.300781 177.460938 286.925781 177.460938 287.011719 C 177.492188 291.847656 171.46875 292.902344 168.691406 292.980469 L 151.191406 292.980469 L 151.191406 289.246094 L 168.722656 289.242188 C 172.292969 288.863281 171.871094 287.089844 171.871094 286.492188 L 171.871094 285.03125 L 160.089844 285.03125 C 154.609375 284.984375 151.117188 282.585938 151.074219 279.828125 C 151.070312 279.578125 151.195312 267.480469 151.070312 267.363281 Z M 151.070312 267.363281 " fill-opacity="1" fill-rule="nonzero"/></g><path fill="#e48e00" d="M 181.738281 285.21875 L 197.671875 285.21875 C 199.539062 285.21875 201.351562 284.828125 202.792969 284.148438 C 205.191406 283.046875 206.363281 281.550781 206.363281 279.589844 L 206.363281 275.53125 C 206.363281 273.929688 205.03125 272.433594 202.417969 271.4375 C 201.035156 270.902344 199.328125 270.617188 197.675781 270.617188 L 190.960938 270.617188 C 188.722656 270.617188 187.65625 269.941406 187.390625 268.445312 C 187.335938 268.265625 187.335938 268.117188 187.335938 267.945312 L 187.335938 265.417969 C 187.335938 265.277344 187.335938 265.132812 187.390625 264.953125 C 187.65625 263.816406 188.242188 263.496094 190.214844 263.308594 C 190.375 263.308594 190.585938 263.273438 190.75 263.273438 L 206.578125 263.273438 L 206.578125 259.570312 L 191.015625 259.570312 C 188.777344 259.570312 187.605469 259.710938 186.539062 260.03125 C 183.226562 261.066406 181.789062 262.710938 181.789062 265.5625 L 181.789062 268.800781 C 181.789062 271.292969 184.613281 273.429688 189.355469 273.929688 C 189.890625 273.964844 190.421875 274 190.957031 274 L 196.710938 274 C 196.925781 274 197.140625 274 197.296875 274.035156 C 199.054688 274.179688 199.804688 274.5 200.335938 275.140625 C 200.664062 275.46875 200.761719 275.78125 200.761719 276.128906 L 200.761719 279.367188 C 200.761719 279.761719 200.496094 280.257812 199.964844 280.6875 C 199.484375 281.113281 198.683594 281.398438 197.617188 281.46875 C 197.40625 281.46875 197.246094 281.503906 197.03125 281.503906 L 181.734375 281.503906 L 181.734375 285.207031 Z M 240.941406 278.773438 C 240.941406 282.582031 243.765625 284.71875 249.46875 285.148438 C 250 285.1875 250.53125 285.210938 251.066406 285.21875 L 265.511719 285.21875 L 265.511719 281.515625 L 250.960938 281.515625 C 247.707031 281.515625 246.480469 280.695312 246.480469 278.734375 L 246.480469 259.578125 L 240.9375 259.578125 L 240.9375 278.769531 Z M 209.898438 278.964844 L 209.898438 265.761719 C 209.898438 262.410156 212.25 260.375 216.894531 259.730469 C 217.390625 259.660156 217.890625 259.625 218.390625 259.625 L 228.914062 259.625 C 229.429688 259.625 229.949219 259.660156 230.460938 259.730469 C 235.109375 260.375 237.457031 262.40625 237.457031 265.761719 L 237.457031 278.964844 C 237.457031 281.6875 236.460938 283.140625 234.160156 284.09375 L 239.617188 289.03125 L 233.183594 289.03125 L 228.765625 285.035156 L 224.320312 285.316406 L 218.390625 285.316406 C 217.375 285.316406 216.308594 285.175781 215.132812 284.851562 C 211.601562 283.890625 209.898438 282.035156 209.898438 278.964844 Z M 215.882812 278.636719 C 215.882812 278.8125 215.933594 278.992188 215.988281 279.207031 C 216.316406 280.742188 217.75 281.597656 219.933594 281.597656 L 224.96875 281.597656 L 220.34375 277.414062 L 226.777344 277.414062 L 230.804688 281.0625 C 231.546875 280.664062 232.035156 280.058594 232.199219 279.277344 C 232.253906 279.101562 232.253906 278.921875 232.253906 278.742188 L 232.253906 266.085938 C 232.253906 265.941406 232.253906 265.753906 232.199219 265.585938 C 231.871094 264.15625 230.4375 263.335938 228.300781 263.335938 L 219.945312 263.335938 C 217.480469 263.335938 215.886719 264.40625 215.886719 266.085938 L 215.886719 278.644531 Z M 215.882812 278.636719 " fill-opacity="1" fill-rule="nonzero"/><path fill="#00618a" d="M 270.382812 253.433594 C 266.976562 253.339844 264.375 253.65625 262.148438 254.597656 C 261.515625 254.867188 260.507812 254.871094 260.40625 255.667969 C 260.75 256.03125 260.808594 256.578125 261.082031 257.027344 C 261.613281 257.886719 262.511719 259.042969 263.3125 259.648438 C 264.183594 260.308594 265.085938 261.015625 266.023438 261.589844 C 267.691406 262.609375 269.554688 263.191406 271.160156 264.210938 C 272.105469 264.8125 273.046875 265.570312 273.96875 266.25 C 274.425781 266.585938 274.734375 267.109375 275.324219 267.316406 L 275.324219 267.222656 C 275.011719 266.824219 274.933594 266.277344 274.644531 265.863281 L 273.386719 264.601562 C 272.15625 262.953125 270.59375 261.523438 268.929688 260.328125 C 267.605469 259.375 264.636719 258.085938 264.085938 256.539062 L 263.988281 256.441406 C 264.929688 256.335938 266.027344 255.996094 266.898438 255.761719 C 268.351562 255.371094 269.65625 255.472656 271.160156 255.082031 L 273.195312 254.5 L 273.195312 254.113281 C 272.433594 253.332031 271.890625 252.296875 271.0625 251.589844 C 268.894531 249.734375 266.527344 247.886719 264.089844 246.34375 C 262.738281 245.488281 261.066406 244.933594 259.632812 244.207031 C 259.148438 243.964844 258.304688 243.835938 257.984375 243.429688 C 257.230469 242.46875 256.824219 241.246094 256.242188 240.136719 C 255.027344 237.789062 253.832031 235.226562 252.753906 232.757812 C 252.019531 231.074219 251.539062 229.414062 250.621094 227.902344 C 246.222656 220.652344 241.488281 216.277344 234.152344 211.976562 C 232.589844 211.0625 230.710938 210.703125 228.726562 210.230469 L 225.527344 210.035156 C 224.878906 209.765625 224.203125 208.964844 223.589844 208.578125 C 221.160156 207.039062 214.925781 203.695312 213.128906 208.085938 C 211.992188 210.863281 214.824219 213.570312 215.839844 214.980469 C 216.550781 215.96875 217.464844 217.074219 217.972656 218.183594 C 218.304688 218.914062 218.363281 219.644531 218.648438 220.417969 C 219.355469 222.3125 219.964844 224.386719 220.878906 226.144531 C 221.335938 227.035156 221.84375 227.972656 222.429688 228.765625 C 222.785156 229.253906 223.398438 229.472656 223.492188 230.226562 C 222.894531 231.066406 222.859375 232.367188 222.523438 233.429688 C 221.011719 238.214844 221.582031 244.160156 223.785156 247.703125 C 224.460938 248.789062 226.050781 251.121094 228.238281 250.226562 C 230.152344 249.445312 229.71875 247.023438 230.273438 244.886719 C 230.398438 244.402344 230.324219 244.046875 230.566406 243.722656 L 230.566406 243.820312 L 232.308594 247.316406 C 233.601562 249.398438 235.890625 251.574219 237.832031 253.046875 C 238.839844 253.808594 239.640625 255.125 240.933594 255.570312 L 240.933594 255.472656 L 240.835938 255.472656 C 240.582031 255.078125 240.1875 254.914062 239.867188 254.601562 C 239.109375 253.855469 238.265625 252.929688 237.636719 252.074219 C 235.871094 249.671875 234.3125 247.042969 232.890625 244.308594 C 232.210938 243 231.621094 241.558594 231.050781 240.230469 C 230.832031 239.714844 230.832031 238.941406 230.371094 238.675781 C 229.746094 239.652344 228.824219 240.4375 228.335938 241.589844 C 227.5625 243.429688 227.460938 245.671875 227.175781 247.996094 C 227.003906 248.058594 227.082031 248.015625 226.980469 248.09375 C 225.632812 247.769531 225.15625 246.375 224.65625 245.183594 C 223.386719 242.160156 223.152344 237.296875 224.269531 233.820312 C 224.554688 232.921875 225.863281 230.089844 225.335938 229.257812 C 225.082031 228.429688 224.25 227.941406 223.785156 227.3125 C 223.210938 226.53125 222.632812 225.5 222.234375 224.597656 C 221.195312 222.242188 220.710938 219.597656 219.617188 217.214844 C 219.097656 216.078125 218.214844 214.925781 217.488281 213.921875 C 216.683594 212.804688 215.785156 211.976562 215.164062 210.628906 C 214.941406 210.148438 214.640625 209.378906 214.96875 208.882812 C 215.039062 208.5625 215.230469 208.367188 215.550781 208.296875 C 216.113281 207.863281 217.679688 208.441406 218.261719 208.6875 C 219.816406 209.335938 221.113281 209.949219 222.429688 210.824219 C 223.0625 211.234375 223.699219 212.054688 224.464844 212.28125 L 225.335938 212.28125 C 226.699219 212.59375 228.226562 212.378906 229.5 212.765625 C 231.753906 213.453125 233.769531 214.519531 235.601562 215.679688 C 241.1875 219.214844 245.753906 224.246094 248.875 230.253906 C 249.378906 231.21875 249.597656 232.140625 250.039062 233.164062 C 250.933594 235.222656 252.058594 237.359375 252.945312 239.378906 C 253.832031 241.398438 254.695312 243.429688 255.949219 245.109375 C 256.609375 245.988281 259.152344 246.464844 260.308594 246.953125 C 261.121094 247.296875 262.449219 247.652344 263.214844 248.117188 C 264.683594 249.003906 266.101562 250.0625 267.480469 251.03125 C 268.167969 251.519531 270.28125 252.582031 270.386719 253.460938 Z M 270.382812 253.433594 " fill-opacity="1" fill-rule="nonzero"/><path fill="#00618a" d="M 227.082031 216.4375 C 226.371094 216.425781 225.867188 216.515625 225.335938 216.632812 L 225.335938 216.730469 L 225.433594 216.730469 C 225.773438 217.429688 226.371094 217.878906 226.789062 218.476562 L 227.757812 220.515625 L 227.855469 220.417969 C 228.457031 219.996094 228.730469 219.316406 228.726562 218.28125 C 228.484375 218.03125 228.449219 217.710938 228.242188 217.410156 C 227.964844 217.003906 227.421875 216.777344 227.078125 216.4375 Z M 227.082031 216.4375 " fill-opacity="1" fill-rule="evenodd"/><g clip-path="url(#5d261ba39d)"><path fill="#e48e00" d="M 268.117188 281.410156 C 268.117188 283.855469 270.042969 285.503906 272.199219 285.503906 C 274.355469 285.503906 276.285156 283.855469 276.285156 281.410156 C 276.285156 278.964844 274.355469 277.316406 272.199219 277.316406 C 270.042969 277.316406 268.117188 278.964844 268.117188 281.410156 Z M 275.371094 281.410156 C 275.371094 283.265625 273.953125 284.652344 272.199219 284.652344 C 270.425781 284.652344 269.027344 283.265625 269.027344 281.410156 C 269.027344 279.554688 270.421875 278.167969 272.199219 278.167969 C 273.953125 278.167969 275.371094 279.554688 275.371094 281.410156 Z M 273.300781 283.746094 L 274.214844 283.746094 L 272.875 281.695312 C 273.59375 281.617188 274.136719 281.265625 274.136719 280.414062 C 274.136719 279.464844 273.539062 279.074219 272.382812 279.074219 L 270.566406 279.074219 L 270.566406 283.746094 L 271.347656 283.746094 L 271.347656 281.726562 L 272.078125 281.726562 Z M 271.347656 281.070312 L 271.347656 279.726562 L 272.253906 279.726562 C 272.722656 279.726562 273.289062 279.816406 273.289062 280.359375 C 273.289062 281.015625 272.777344 281.070312 272.1875 281.070312 Z M 271.347656 281.070312 " fill-opacity="1" fill-rule="evenodd"/></g></svg>